<?xml version="1.0" encoding="UTF-8" standalone="no"?>
<svg
   xmlns:dc="http://purl.org/dc/elements/1.1/"
   xmlns:cc="http://creativecommons.org/ns#"
   xmlns:rdf="http://www.w3.org/1999/02/22-rdf-syntax-ns#"
   xmlns:svg="http://www.w3.org/2000/svg"
   xmlns="http://www.w3.org/2000/svg"
   viewBox="0 0 266.4567 153.07091"
   id="svg13"
   height="153.07091"
   width="266.4567"
   version="1.1">
  <metadata
     id="metadata19">
    <rdf:RDF>
      <cc:Work
         rdf:about="">
        <dc:format>image/svg+xml</dc:format>
        <dc:type
           rdf:resource="http://purl.org/dc/dcmitype/StillImage" />
      </cc:Work>
    </rdf:RDF>
  </metadata>
  <defs
     id="defs17" />
  <path
     id="path2"
     style="fill:#005a8d;fill-rule:evenodd"
     d="m 1925.5462,-955.3745 a 54.9995,54.9995 0 0 1 54.9995,54.9995 54.9995,54.9995 0 1 1 -54.9995,-54.9995 z" />
  <path
     id="path4"
     style="fill:#009ee0;fill-rule:evenodd"
     d="m 1925.5462,-955.3745 c 14.1276,0 27.009,5.3285 36.7497,14.0831 l -6.0933,6.3107 -31.1148,31.3025 4.0275,4.5547 -39.96,39.9835 c -11.4106,-10.0777 -18.6086,-24.8145 -18.6086,-41.235 0,-30.3755 24.624,-54.9995 54.9995,-54.9995 z" />
  <g
     id="Layer1000">
    <path
       id="path6"
       style="fill:#005a8d;fill-rule:evenodd"
       d="m 1644.3164,-834.3275 v 33.9409 h -8.8837 v -40.6607 h 32.574 v 40.6607 h -8.8838 v -33.9409 z m 33.4667,14.4649 -3.189,-5.2393 c 3.9104,-2.5818 7.9348,-3.8724 12.0728,-3.8724 4.5938,0 7.6122,1.063 9.0547,3.189 1.4428,2.126 2.164,4.3849 2.164,6.7768 v 8.3713 c 0,1.3289 0.1709,2.3822 0.5125,3.1606 0.3418,0.7784 1.1579,1.1486 2.4488,1.1106 v 6.0934 c -0.949,0.3415 -1.8414,0.5125 -2.6764,0.5125 -2.8095,0 -4.8218,-1.025 -6.0364,-3.0753 -2.5058,2.0123 -5.5622,3.0373 -9.1687,3.0753 -3.2649,0.038 -5.6474,-0.7498 -7.147,-2.3633 -1.4995,-1.6137 -2.2495,-3.5215 -2.2495,-5.7234 0,-2.9991 1.2529,-5.4859 3.7587,-7.4602 2.5055,-1.9741 6.7198,-2.9611 12.6422,-2.9611 0.038,-0.1519 0.057,-0.3798 0.057,-0.6834 0,-0.5315 -0.019,-0.9491 -0.057,-1.2529 -0.3036,-1.6705 -1.6894,-2.4866 -4.157,-2.4489 -2.5058,0 -5.1823,0.9303 -8.0297,2.7907 z m 12.1867,7.1754 c -2.3916,-0.114 -4.3659,0.2086 -5.9224,0.968 -1.5565,0.7594 -2.3159,1.8414 -2.2779,3.2459 0.076,0.8354 0.4082,1.4522 0.9966,1.8511 0.5885,0.3985 1.3953,0.5408 2.4203,0.4269 1.4805,-0.1517 3.075,-0.8731 4.7834,-2.164 z m 23.273,9.7381 v 14.6922 h -7.7448 v -40.0342 h 7.7448 v 3.4738 c 1.8984,-2.7714 4.7268,-4.157 8.4853,-4.157 1.9743,0 4.3565,0.9397 7.147,2.8188 2.7904,1.8794 4.1666,5.8941 4.1286,12.0444 -0.076,3.9484 -1.025,7.2893 -2.8474,10.023 -1.8221,2.7335 -4.5745,4.176 -8.2573,4.328 -3.6065,0.1519 -6.4919,-0.9111 -8.6562,-3.189 z m -0.1706,-11.105 c 0,2.7714 0.5695,4.7458 1.7084,5.9227 1.139,1.1769 2.3539,1.7654 3.6445,1.7654 1.2909,0 2.4962,-0.5885 3.6162,-1.7654 1.12,-1.1769 1.6801,-3.1513 1.6801,-5.9227 0,-1.9361 -0.2943,-3.4832 -0.8827,-4.6412 -0.5885,-1.1579 -1.2909,-1.9647 -2.107,-2.4202 -0.8164,-0.4555 -1.5851,-0.6834 -2.3066,-0.6834 -1.2906,0 -2.5055,0.5884 -3.6445,1.7654 -1.1389,1.1769 -1.7084,3.17 -1.7084,5.9794 z m 27.0315,-5.8085 -3.189,-5.2393 c 3.9104,-2.5818 7.9347,-3.8724 12.0727,-3.8724 4.5939,0 7.6122,1.063 9.0547,3.189 1.4429,2.126 2.164,4.3849 2.164,6.7768 v 8.3713 c 0,1.3289 0.1709,2.3822 0.5125,3.1606 0.3419,0.7784 1.158,1.1486 2.4489,1.1106 v 6.0934 c -0.9491,0.3415 -1.8414,0.5125 -2.6765,0.5125 -2.8094,0 -4.8217,-1.025 -6.0364,-3.0753 -2.5058,2.0123 -5.5621,3.0373 -9.1686,3.0753 -3.265,0.038 -5.6475,-0.7498 -7.147,-2.3633 -1.4996,-1.6137 -2.2496,-3.5215 -2.2496,-5.7234 0,-2.9991 1.2529,-5.4859 3.7587,-7.4602 2.5056,-1.9741 6.7198,-2.9611 12.6423,-2.9611 0.038,-0.1519 0.057,-0.3798 0.057,-0.6834 0,-0.5315 -0.019,-0.9491 -0.057,-1.2529 -0.3036,-1.6705 -1.6895,-2.4866 -4.157,-2.4489 -2.5059,0 -5.1823,0.9303 -8.0297,2.7907 z m 12.1867,7.1754 c -2.3916,-0.114 -4.366,0.2086 -5.9225,0.968 -1.5565,0.7594 -2.3159,1.8414 -2.2779,3.2459 0.076,0.8354 0.4082,1.4522 0.9967,1.8511 0.5884,0.3985 1.3952,0.5408 2.4202,0.4269 1.4805,-0.1517 3.075,-0.8731 4.7835,-2.164 z m 23.3869,-5.3533 v 17.6539 h -7.8587 v -27.9045 h 9.6241 l 6.1504,13.8954 6.2073,-13.8954 h 9.5672 v 27.9045 h -7.8588 v -17.6539 l -5.4669,13.6676 h -4.8974 z m 33.1818,-1.8221 -3.189,-5.2393 c 3.9104,-2.5818 7.9348,-3.8724 12.0728,-3.8724 4.5938,0 7.6122,1.063 9.0547,3.189 1.4428,2.126 2.164,4.3849 2.164,6.7768 v 8.3713 c 0,1.3289 0.1709,2.3822 0.5125,3.1606 0.3418,0.7784 1.1579,1.1486 2.4488,1.1106 v 6.0934 c -0.949,0.3415 -1.8414,0.5125 -2.6764,0.5125 -2.8095,0 -4.8218,-1.025 -6.0364,-3.0753 -2.5058,2.0123 -5.5622,3.0373 -9.1687,3.0753 -3.2649,0.038 -5.6474,-0.7498 -7.147,-2.3633 -1.4995,-1.6137 -2.2495,-3.5215 -2.2495,-5.7234 0,-2.9991 1.2529,-5.4859 3.7587,-7.4602 2.5055,-1.9741 6.7198,-2.9611 12.6422,-2.9611 0.038,-0.1519 0.057,-0.3798 0.057,-0.6834 0,-0.5315 -0.019,-0.9491 -0.057,-1.2529 -0.3036,-1.6705 -1.6894,-2.4866 -4.157,-2.4489 -2.5058,0 -5.1823,0.9303 -8.0297,2.7907 z m 12.1867,7.1754 c -2.3916,-0.114 -4.3659,0.2086 -5.9224,0.968 -1.5565,0.7594 -2.3159,1.8414 -2.2779,3.2459 0.076,0.8354 0.4082,1.4522 0.9966,1.8511 0.5885,0.3985 1.3953,0.5408 2.4203,0.4269 1.4805,-0.1517 3.075,-0.8731 4.7834,-2.164 z m 28.1138,-18.508 c -3.227,-0.114 -5.6569,-1.2719 -7.2893,-3.4739 -1.6325,-2.2019 -2.5438,-4.7457 -2.7335,-7.6311 h 5.1253 c 0.076,1.2909 0.4746,2.5438 1.1957,3.7587 0.7214,1.2149 1.9553,1.8411 3.7018,1.8791 1.7464,-0.038 2.9897,-0.6738 3.7301,-1.9077 0.7401,-1.2339 1.1103,-2.4772 1.1103,-3.7301 h 5.0683 c -0.1516,2.8474 -1.0343,5.3816 -2.6478,7.6025 -1.6138,2.2209 -4.034,3.3885 -7.2609,3.5025 z m -4.7268,17.4829 9.3396,-10.2506 v -4.3282 h 7.9157 v 27.9045 h -7.9157 v -14.237 l -9.3396,10.2507 v 3.9863 h -7.8588 v -27.9045 h 7.8588 z m 32.7832,2.3347 v 10.991 h -7.8587 v -27.9045 h 7.8587 v 10.4216 h 10.9911 v -10.4216 h 7.8588 v 27.9045 h -7.8588 v -10.991 z m 46.5078,2.0503 3.9863,4.1003 c -1.7464,1.8981 -3.5878,3.2839 -5.5238,4.157 -1.9364,0.8733 -4.1193,1.3099 -6.5492,1.3099 -4.176,-0.038 -7.5835,-1.4332 -10.222,-4.1857 -2.6388,-2.7524 -3.996,-6.2739 -4.072,-10.5638 0,-4.6318 1.3479,-8.2004 4.0434,-10.7062 2.6957,-2.5058 5.8467,-3.7585 9.4535,-3.7585 3.227,0 6.2167,1.1294 8.9691,3.3883 2.7524,2.2589 4.0527,6.5585 3.901,12.8988 h -17.5969 c -0.038,1.1009 0.2183,2.1449 0.7688,3.132 0.5505,0.9873 1.3099,1.756 2.2779,2.3065 0.968,0.5505 2.0787,0.8257 3.3316,0.8257 2.012,0.038 4.4229,-0.9303 7.2323,-2.9043 z m -4.1003,-8.5422 c 0.038,-1.6325 -0.3796,-2.9328 -1.2529,-3.9011 -0.8731,-0.968 -1.9551,-1.4522 -3.246,-1.4522 -1.2529,-0.0757 -2.3632,0.3229 -3.3316,1.196 -0.968,0.8733 -1.4709,2.2589 -1.5088,4.1573 z m 13.6488,17.4829 v -27.9045 h 7.8588 v 9.7951 c 1.2529,0.1899 2.2779,-0.2466 3.0753,-1.3099 0.4555,-0.4555 1.025,-1.2526 1.7084,-2.3916 1.4426,-2.3159 2.7904,-4.015 4.0433,-5.097 1.2527,-1.0819 2.8474,-1.6418 4.7835,-1.6798 1.025,0 1.9743,0.1897 2.8474,0.5695 v 6.378 c -1.2149,-0.1517 -2.2209,0.2089 -3.0183,1.0819 -0.4935,0.4559 -1.082,1.215 -1.7652,2.278 -1.2909,1.7464 -2.6577,2.8094 -4.1003,3.1892 2.126,0.4556 4.214,2.6765 6.2643,6.6629 0.3796,0.8351 0.7591,1.4235 1.139,1.7654 0.4935,0.4935 1.2529,0.7214 2.2779,0.6834 v 6.0934 c -1.2529,0.3415 -2.221,0.5125 -2.9044,0.5125 -2.8854,0 -5.2393,-1.4239 -7.0617,-4.2713 -0.2656,-0.4935 -0.5408,-1.0343 -0.8257,-1.6228 -0.2846,-0.5885 -0.5218,-1.0536 -0.7118,-1.3952 -0.1899,-0.4555 -0.3795,-0.8924 -0.5694,-1.3099 -0.19,-0.4176 -0.3986,-0.8351 -0.6265,-1.2529 -0.2656,-0.5695 -0.4935,-1.006 -0.6834,-1.3096 -0.7971,-1.139 -2.088,-1.6135 -3.8724,-1.4239 v 11.9591 z m 50.3232,-9.2256 5.2962,4.6128 c -2.8854,3.5308 -6.9097,5.2773 -12.073,5.2393 -3.3409,0 -6.1504,-0.7025 -8.4283,-2.107 -2.2779,-1.4049 -3.9197,-3.2366 -4.926,-5.4955 -1.006,-2.259 -1.4522,-4.6602 -1.3383,-7.204 0.152,-3.6825 1.4239,-6.9951 3.8155,-9.9374 2.3918,-2.9424 6.1316,-4.4323 11.2189,-4.4703 4.176,0 7.6689,1.2527 10.4783,3.7585 l -4.0433,5.2393 c -1.9361,-1.7085 -4.0434,-2.4679 -6.3213,-2.278 -1.5945,0.2277 -2.9991,0.9587 -4.214,2.1924 -1.2149,1.2339 -1.8414,3.1036 -1.8793,5.6094 0,2.5816 0.5221,4.5083 1.5661,5.7802 1.044,1.2719 2.4012,2.0026 4.0717,2.1926 2.6198,0.2656 4.8787,-0.7784 6.7768,-3.1323 z" />
    <path
       id="path8"
       style="fill:#009ee0;fill-rule:evenodd"
       d="m 2030.1032,-800.3866 v -5.9794 c -0.2279,0 -0.4272,-0.01 -0.5981,-0.0286 -0.1706,-0.019 -0.4079,-0.0284 -0.7118,-0.0284 -3.4928,-0.0759 -6.0364,-0.4178 -7.6308,-1.025 -2.6958,-1.0253 -4.8977,-2.9043 -6.6062,-5.6378 -1.7084,-2.7337 -2.5625,-5.9987 -2.5625,-9.7951 0,-2.3919 0.4555,-4.8407 1.3669,-7.3463 0.911,-2.5058 2.7144,-4.6698 5.4099,-6.4922 2.6954,-1.8221 6.4729,-2.6385 11.3326,-2.4485 v -4.7838 h 8.7698 v 4.7838 c 5.0114,-0.19 8.8935,0.6264 11.6459,2.4485 2.7524,1.8224 4.5845,3.9864 5.4955,6.4922 0.9111,2.5056 1.3666,4.9544 1.3666,7.3463 0,3.7584 -0.8637,7.0234 -2.5909,9.7951 -1.7274,2.7714 -3.996,4.6505 -6.8054,5.6378 -1.6324,0.6072 -4.233,0.9491 -7.8018,1.025 -0.3036,0 -0.5411,0.009 -0.7118,0.0284 -0.1709,0.019 -0.3702,0.0286 -0.5981,0.0286 v 5.9794 z m 0,-32.1185 c -6.1883,-0.5695 -9.2826,2.6575 -9.2826,9.6812 0,3.7964 0.7311,6.4445 2.1926,7.9441 1.4615,1.4998 3.8251,2.1356 7.09,1.9077 z m 8.7698,-0.057 v 19.59 c 3.3789,0.2279 5.8468,-0.4079 7.4033,-1.9077 1.5565,-1.4996 2.3349,-4.1477 2.3349,-7.9441 0,-6.8718 -3.246,-10.1177 -9.7382,-9.7382 z m 31.9859,18.8498 9.3396,-10.2506 v -4.3282 h 7.9157 v 27.9045 h -7.9157 v -14.237 l -9.3396,10.2507 v 3.9863 h -7.8588 v -27.9045 h 7.8588 z m 32.7832,2.3347 v 10.991 h -7.8587 v -27.9045 h 7.8587 v 10.4216 h 10.9911 v -10.4216 h 7.8588 v 27.9045 h -7.8588 v -10.991 z m 28.3414,-8.485 -3.189,-5.2393 c 3.9104,-2.5818 7.9348,-3.8724 12.0728,-3.8724 4.5938,0 7.6121,1.063 9.0547,3.189 1.4428,2.126 2.164,4.3849 2.164,6.7768 v 8.3713 c 0,1.3289 0.1709,2.3822 0.5125,3.1606 0.3418,0.7784 1.1579,1.1486 2.4488,1.1106 v 6.0934 c -0.949,0.3415 -1.8414,0.5125 -2.6765,0.5125 -2.8094,0 -4.8217,-1.025 -6.0363,-3.0753 -2.5059,2.0123 -5.5622,3.0373 -9.1687,3.0753 -3.2649,0.038 -5.6475,-0.7498 -7.147,-2.3633 -1.4995,-1.6137 -2.2496,-3.5215 -2.2496,-5.7234 0,-2.9991 1.2529,-5.4859 3.7588,-7.4602 2.5055,-1.9741 6.7198,-2.9611 12.6422,-2.9611 0.038,-0.1519 0.057,-0.3798 0.057,-0.6834 0,-0.5315 -0.019,-0.9491 -0.057,-1.2529 -0.3036,-1.6705 -1.6894,-2.4866 -4.157,-2.4489 -2.5058,0 -5.1823,0.9303 -8.0297,2.7907 z m 12.1867,7.1754 c -2.3916,-0.114 -4.3659,0.2086 -5.9224,0.968 -1.5565,0.7594 -2.3159,1.8414 -2.2779,3.2459 0.076,0.8354 0.4081,1.4522 0.9966,1.8511 0.5885,0.3985 1.3952,0.5408 2.4202,0.4269 1.4806,-0.1517 3.0751,-0.8731 4.7835,-2.164 z m 23.387,1.3096 v 10.991 h -7.8588 v -27.9045 h 7.8588 v 10.4216 h 10.991 v -10.4216 h 7.8588 v 27.9045 h -7.8588 v -10.991 z m 45.7103,1.7654 5.2963,4.6128 c -2.8854,3.5308 -6.9098,5.2773 -12.0731,5.2393 -3.3409,0 -6.1503,-0.7025 -8.4282,-2.107 -2.2779,-1.4049 -3.9198,-3.2366 -4.9261,-5.4955 -1.006,-2.259 -1.4521,-4.6602 -1.3382,-7.204 0.1519,-3.6825 1.4238,-6.9951 3.8154,-9.9374 2.3919,-2.9424 6.1317,-4.4323 11.219,-4.4703 4.176,0 7.6688,1.2527 10.4783,3.7585 l -4.0434,5.2393 c -1.936,-1.7085 -4.0433,-2.4679 -6.3212,-2.278 -1.5945,0.2277 -2.9991,0.9587 -4.214,2.1924 -1.2149,1.2339 -1.8414,3.1036 -1.8794,5.6094 0,2.5816 0.5222,4.5083 1.5662,5.7802 1.044,1.2719 2.4012,2.0026 4.0716,2.1926 2.6198,0.2656 4.8787,-0.7784 6.7768,-3.1323 z" />
  </g>
  <path
     id="path11"
     style="fill:#c4c6c8;fill-rule:evenodd"
     d="m 1890.8745,-869.2583 3.0773,-3.096 -2.5893,-3.2395 c -2.4244,-3.4392 -4.3032,-6.7925 -5.7289,-10.883 -5.3366,-15.3056 -1.4347,-31.3978 9.2106,-42.9531 1.546,-1.6781 3.1626,-2.9904 4.9343,-4.4444 5.3262,-4.3711 12.8026,-7.4307 20.027,-8.3722 8.4121,-1.0963 16.6342,0.1959 24.021,3.7668 1.9322,0.9339 4.6292,2.3774 5.974,3.5542 l -27.9164,27.9634 c -0.3141,-0.1752 -1.3991,-1.1424 -1.7192,-1.4389 -0.6018,-0.5577 -1.1837,-1.0155 -1.8212,-1.5228 -3.7466,-2.9806 -8.1332,-5.8533 -13.2053,-6.7694 -7.3204,-1.3224 -14.0922,2.821 -15.9123,10.0371 -1.3819,5.4777 0.8647,11.0445 5.0191,13.9859 6.3601,4.5032 13.7577,2.8415 19.5995,-1.4226 0.9749,-0.7116 1.9296,-1.3267 2.7763,-2.1808 l 0.8085,-0.8166 -2.7559,-2.7612 -1.6101,1.3577 c -3.9243,3.4427 -10.4956,6.1708 -15.3762,3.3199 -2.3689,-1.3835 -4.2885,-3.5435 -4.7936,-7.2538 -0.2363,-1.734 0.2133,-3.731 0.8451,-5.0708 0.6685,-1.418 1.7386,-2.5555 2.7522,-3.4071 6.5061,-5.4654 15.8457,1.2039 20.7605,5.2832 2.2169,1.8407 4.1084,3.8965 6.131,5.9272 0.8634,0.8669 2.158,2.3407 3.0169,3.0199 -1.508,1.2663 -14.151,14.1544 -15.605,15.6044 -0.612,0.6103 -15.1334,14.8756 -15.5724,15.7173 0.9842,0.6466 1.9559,1.5318 3.0138,2.3087 3.1708,2.3284 6.495,4.1752 10.3779,5.7027 5.5383,2.179 11.6458,3.3391 18.3889,3.1709 6.7088,-0.167 12.1498,-1.7775 17.5204,-4.0377 5.862,-2.467 11.9806,-7.0585 15.5364,-11.3946 2.958,-3.6073 3.9175,-4.8696 6.5789,-9.4944 2.2857,-3.9714 4.4833,-11.2082 4.9572,-16.5978 0.6154,-6.9984 -0.1297,-13.0693 -2.0936,-19.1549 -1.5902,-4.9285 -3.6462,-8.3672 -6.3082,-12.4516 l -1.1695,-1.6539 -2.7327,2.0533 -0.4683,0.4162 0.9894,1.3606 2.7526,4.3489 c 1.0392,1.7856 2.2334,4.4221 2.9282,6.58 1.7584,5.4612 2.5903,10.296 2.227,16.6476 -0.629,10.9981 -6.0411,20.7792 -11.5529,26.201 -3.8116,3.7494 -5.492,5.3786 -10.685,8.2052 -11.3607,6.1831 -26.5302,6.7067 -38.2063,0.8453 -2.2718,-1.1408 -3.9465,-2.2578 -5.9975,-3.4918 0.4083,-0.7288 23.1656,-23.2656 26.1556,-26.2419 0.5284,-0.5259 1.2878,-1.4242 1.8462,-1.7809 l 3.5606,3.0153 c 3.6309,2.8457 8.0801,5.8119 12.9935,6.6949 12.5435,2.2541 20.5415,-10.8695 14.2557,-20.5388 -4.2012,-6.4618 -11.6662,-7.5453 -18.5644,-4.5159 -2.3029,1.0112 -4.2645,2.3 -6.0809,3.8323 l -1.7461,1.6095 2.8726,2.8312 c 2.1044,-2.065 4.3186,-3.6729 7.1669,-4.8536 3.1033,-1.2863 6.8297,-1.6194 9.7537,0.1929 5.9139,3.6649 6.3567,11.4573 1.0675,15.7139 -5.4978,4.4246 -13.2015,0.384 -17.3211,-2.6876 l -3.4127,-2.6192 c -0.2786,-0.2263 -0.5116,-0.4936 -0.7443,-0.724 -0.2917,-0.2891 -0.4773,-0.4304 -0.776,-0.6916 -1.1182,-0.9776 -6.9206,-6.5283 -7.2178,-7.125 l 31.1149,-31.3024 c -0.3739,-0.4578 -1.3363,-1.1775 -1.8541,-1.5664 -3.6959,-2.7748 -7.4438,-5.1712 -11.8744,-6.8799 -12.9304,-4.9868 -27.5046,-4.0794 -39.522,2.6759 -3.8588,2.169 -6.0965,4.0133 -9.3004,6.912 -1.8103,1.6374 -3.6154,3.6595 -5.0987,5.622 -8.9105,11.7904 -11.7781,28.0957 -6.9201,42.3914 2.0119,5.9211 5.0998,11.723 9.2416,16.5674 z" />
</svg>
