<svg width="17" height="11" viewBox="0 0 17 11" fill="none" xmlns="http://www.w3.org/2000/svg">
<path fill-rule="evenodd" clip-rule="evenodd" d="M6.28067 0.719411C6.3505 0.78907 6.40591 0.871823 6.44371 0.962928C6.48152 1.05403 6.50098 1.1517 6.50098 1.25034C6.50098 1.34898 6.48152 1.44665 6.44371 1.53775C6.40591 1.62886 6.3505 1.71161 6.28067 1.78127L2.31069 5.74975L6.28067 9.71822C6.42148 9.85903 6.50058 10.05 6.50058 10.2492C6.50058 10.4483 6.42148 10.6393 6.28066 10.7801C6.13985 10.9209 5.94887 11 5.74973 11C5.5506 11 5.35962 10.9209 5.2188 10.7801L0.7194 6.28068C0.649564 6.21102 0.594157 6.12826 0.556353 6.03716C0.518548 5.94605 0.499089 5.84838 0.499089 5.74975C0.499089 5.65111 0.518548 5.55344 0.556353 5.46233C0.594157 5.37123 0.649564 5.28848 0.7194 5.21882L5.21881 0.719411C5.28846 0.649575 5.37122 0.594168 5.46232 0.556363C5.55343 0.518559 5.6511 0.4991 5.74974 0.4991C5.84837 0.4991 5.94604 0.518559 6.03715 0.556363C6.12825 0.594168 6.21101 0.649575 6.28067 0.719411Z" fill="#94A8B4"/>
<path fill-rule="evenodd" clip-rule="evenodd" d="M16.998 5.74976C16.998 5.94865 16.919 6.13939 16.7784 6.28002C16.6378 6.42066 16.447 6.49966 16.2481 6.49966L2.74993 6.49966C2.55104 6.49966 2.3603 6.42066 2.21967 6.28002C2.07903 6.13939 2.00003 5.94865 2.00003 5.74976C2.00003 5.55088 2.07903 5.36014 2.21967 5.2195C2.3603 5.07887 2.55104 4.99986 2.74993 4.99986L16.2481 4.99986C16.447 4.99986 16.6378 5.07887 16.7784 5.2195C16.919 5.36014 16.998 5.55088 16.998 5.74976Z" fill="#94A8B4"/>
</svg>
