<svg width="48" height="48" viewBox="0 0 48 48" fill="none" xmlns="http://www.w3.org/2000/svg">
<g clip-path="url(#clip0)">
<path d="M33.861 26.2574C33.4713 26.2574 33.1555 26.5732 33.1555 26.9628V44.8453C33.1555 45.8068 32.3729 46.5891 31.4107 46.5891H6.08441C5.12285 46.5891 4.34057 45.8068 4.34057 44.8453V15.0174C4.34057 14.6278 4.02481 14.312 3.63513 14.312C3.24544 14.312 2.92969 14.6278 2.92969 15.0174V44.8453C2.92969 46.5848 4.34489 48 6.08441 48H31.4107C33.1507 48 34.5664 46.5848 34.5664 44.8453V26.9628C34.5664 26.5732 34.2507 26.2574 33.861 26.2574Z" fill="#62C6FF"/>
<path d="M9.82409 42.5715C9.43441 42.5715 9.11865 42.8874 9.11865 43.277C9.11865 43.6666 9.43441 43.9824 9.82409 43.9824H27.672C28.0617 43.9824 28.3774 43.6666 28.3774 43.277C28.3774 42.8874 28.0617 42.5715 27.672 42.5715H9.82409Z" fill="#62C6FF"/>
<path d="M12.1157 26.7246H8.93922C7.93759 26.7246 7.12267 27.5395 7.12267 28.5412V34.0842H6.81481C6.42513 34.0842 6.10938 34.4001 6.10938 34.7897C6.10938 35.1793 6.42513 35.4951 6.81481 35.4951H30.6808C31.0705 35.4951 31.3862 35.1793 31.3862 34.7897C31.3862 34.4001 31.0705 34.0842 30.6808 34.0842H30.3729V23.9289C30.3729 22.9268 29.5581 22.1115 28.5564 22.1115H25.3809C24.3787 22.1115 23.5634 22.9268 23.5634 23.9289V34.0842H22.1525V25.2546C22.1525 24.2524 21.3377 23.4371 20.3359 23.4371H17.1604C16.1583 23.4371 15.343 24.2524 15.343 25.2546V34.0842H13.9321V28.5411C13.9322 27.5395 13.1174 26.7246 12.1157 26.7246ZM12.5214 34.0842H8.53355V28.5411C8.53355 28.3174 8.71555 28.1354 8.93922 28.1354H12.1157C12.3393 28.1354 12.5214 28.3174 12.5214 28.5411V34.0842ZM24.9742 23.9289C24.9742 23.7048 25.1566 23.5224 25.3809 23.5224H28.5564C28.78 23.5224 28.962 23.7048 28.962 23.9289V34.0842H24.9743V23.9289H24.9742ZM16.754 25.2546C16.754 25.0303 16.9364 24.848 17.1605 24.848H20.336C20.5597 24.848 20.7417 25.0303 20.7417 25.2546V34.0842H16.754V25.2546Z" fill="#62C6FF"/>
<path d="M36.826 4.43044C36.0427 4.43044 35.2847 4.5403 34.5664 4.74526V3.15473C34.5664 1.41521 33.1507 0 31.4107 0H6.08441C4.34489 0 2.92969 1.41521 2.92969 3.15473V11.7724C2.92969 12.162 3.24544 12.4778 3.63513 12.4778C4.02481 12.4778 4.34057 12.162 4.34057 11.7724V3.15473C4.34057 2.19317 5.12285 1.41088 6.08441 1.41088H8.61017V3.49221C8.61017 4.82718 9.69626 5.91318 11.0311 5.91318H26.4648C27.7994 5.91318 28.8849 4.82718 28.8849 3.49221V1.41088H31.4107C32.3729 1.41088 33.1555 2.19317 33.1555 3.15473V5.29418C30.447 6.64675 28.5821 9.44668 28.5821 12.6744C28.5821 15.9021 30.447 18.7021 33.1555 20.0546V23.7649C33.1555 24.1544 33.4713 24.4703 33.861 24.4703C34.2506 24.4703 34.5664 24.1544 34.5664 23.7649V20.6034C35.2847 20.8085 36.0427 20.9183 36.826 20.9183C41.3717 20.9183 45.0699 17.2201 45.0699 12.6743C45.0699 8.12855 41.3718 4.43044 36.826 4.43044ZM27.4741 3.49221C27.4741 4.04922 27.0214 4.5023 26.4649 4.5023H11.0311C10.4741 4.5023 10.021 4.04922 10.021 3.49221V1.41088H27.4741V3.49221ZM36.826 19.5075C33.0582 19.5075 29.993 16.4422 29.993 12.6744C29.993 8.9066 33.0583 5.84132 36.826 5.84132C40.5937 5.84132 43.659 8.9066 43.659 12.6744C43.659 16.4422 40.5938 19.5075 36.826 19.5075Z" fill="#62C6FF"/>
<path d="M40.9157 9.2529C40.6078 9.01408 40.1649 9.07005 39.926 9.37781L36.2347 14.1355L34.0014 11.7533C33.735 11.469 33.2885 11.4546 33.0042 11.7211C32.72 11.9876 32.7056 12.4341 32.972 12.7182L35.7707 15.7034C35.9045 15.846 36.0908 15.9264 36.2854 15.9264C36.2963 15.9264 36.3072 15.9262 36.3183 15.9257C36.5245 15.9161 36.7162 15.8166 36.8428 15.6535L41.0407 10.2428C41.2795 9.93482 41.2235 9.49171 40.9157 9.2529Z" fill="#62C6FF"/>
</g>
<defs>
<clipPath id="clip0">
<rect width="48" height="48" fill="white"/>
</clipPath>
</defs>
</svg>
