<svg width="48" height="48" viewBox="0 0 48 48" fill="none" xmlns="http://www.w3.org/2000/svg">
<g clip-path="url(#clip0)">
<path d="M47.6155 31.7031L39.0852 5.51211C38.4451 3.54507 37.0773 1.94535 35.2338 1.00749C33.3902 0.0697177 31.2917 -0.0938182 29.3253 0.54669L20.056 3.56547H6.98248C3.13238 3.56547 0 6.69786 0 10.548V14.1478C0 14.5373 0.315693 14.8531 0.705302 14.8531C1.09491 14.8531 1.4106 14.5373 1.4106 14.1478V10.548C1.4106 7.47567 3.9101 4.97608 6.98248 4.97608H26.3764C29.4488 4.97608 31.9483 7.47567 31.9483 10.548V36.9055C31.9483 37.2951 32.264 37.6109 32.6536 37.6109C33.0432 37.6109 33.3589 37.2951 33.3589 36.9055V33.6825L40.6235 31.116C40.9908 30.9862 41.1833 30.5832 41.0535 30.216C40.9238 29.8487 40.5207 29.6563 40.1537 29.786L33.3589 32.1864V26.2173L39.0419 24.2096C39.4092 24.0799 39.6017 23.6769 39.472 23.3097C39.3422 22.9424 38.9391 22.75 38.5721 22.8795L33.3589 24.7212V18.9387L37.9876 17.3032C38.3549 17.1735 38.5474 16.7705 38.4176 16.4033C38.2878 16.0359 37.8848 15.8436 37.5176 15.9732L33.3589 17.4426V10.548C33.3589 6.69786 30.2265 3.56547 26.3764 3.56547H24.6111L29.762 1.88789C31.3705 1.36409 33.0865 1.49781 34.5942 2.26471C36.1018 3.03161 37.2205 4.3399 37.7439 5.94864L46.2743 32.1398C46.798 33.7481 46.6642 35.4641 45.8971 36.9718C45.13 38.4795 43.8219 39.5981 42.2133 40.1216L32.976 43.1309C33.2229 42.4171 33.3589 41.6519 33.3589 40.8552V40.1029C33.3589 39.7134 33.0432 39.3976 32.6536 39.3976C32.264 39.3976 31.9483 39.7134 31.9483 40.1029V40.8552C31.9483 43.9275 29.4488 46.4271 26.3764 46.4271H6.98248C3.9101 46.4271 1.4106 43.9275 1.4106 40.8552V17.3452C1.4106 16.9557 1.09491 16.6399 0.705302 16.6399C0.315693 16.6399 0 16.9557 0 17.3452V40.8552C0 44.7053 3.13238 47.8377 6.98248 47.8377H26.3764C28.7127 47.8377 30.7833 46.6831 32.0514 44.9157L42.6501 41.4629C44.6168 40.8229 46.2164 39.4551 47.1543 37.6115C48.0923 35.7679 48.2561 33.6696 47.6155 31.7031Z" fill="#62C6FF"/>
<path d="M16.7172 7.97217C14.5986 7.97217 12.875 9.69574 12.875 11.8144C12.875 13.9329 14.5986 15.6565 16.7172 15.6565C18.8357 15.6565 20.5593 13.9329 20.5593 11.8144C20.5593 9.69574 18.8357 7.97217 16.7172 7.97217ZM16.7172 14.2459C15.3764 14.2459 14.2856 13.1551 14.2856 11.8144C14.2856 10.4736 15.3765 9.38277 16.7172 9.38277C18.0579 9.38277 19.1487 10.4736 19.1487 11.8144C19.1487 13.1551 18.0578 14.2459 16.7172 14.2459Z" fill="#62C6FF"/>
<path d="M20.3182 20.5723C19.9925 20.359 19.5552 20.4502 19.3418 20.776L12.5568 31.1377C12.3433 31.4635 12.4345 31.9007 12.7605 32.1141C12.8796 32.1921 13.0136 32.2295 13.1462 32.2295C13.3761 32.2295 13.6016 32.1172 13.7369 31.9104L20.5218 21.5488C20.7353 21.2229 20.644 20.7857 20.3182 20.5723Z" fill="#62C6FF"/>
<path d="M10.583 21.7586C10.583 23.1335 11.7017 24.2521 13.0767 24.2521C14.4516 24.2521 15.5703 23.1335 15.5703 21.7586C15.5703 20.3836 14.4516 19.2649 13.0767 19.2649C11.7017 19.2649 10.583 20.3836 10.583 21.7586ZM13.0767 20.6755C13.6739 20.6755 14.1597 21.1614 14.1597 21.7586C14.1597 22.3557 13.6739 22.8415 13.0767 22.8415C12.4794 22.8415 11.9936 22.3557 11.9936 21.7586C11.9936 21.1614 12.4794 20.6755 13.0767 20.6755Z" fill="#62C6FF"/>
<path d="M17.8638 30.9017C17.8638 32.2766 18.9825 33.3953 20.3574 33.3953C21.7324 33.3953 22.8511 32.2766 22.8511 30.9017C22.8511 29.5267 21.7324 28.4081 20.3574 28.4081C18.9825 28.4081 17.8638 29.5266 17.8638 30.9017ZM21.4404 30.9017C21.4404 31.4988 20.9546 31.9847 20.3573 31.9847C19.7601 31.9847 19.2743 31.4988 19.2743 30.9017C19.2743 30.3045 19.7601 29.8187 20.3573 29.8187C20.9546 29.8187 21.4404 30.3044 21.4404 30.9017Z" fill="#62C6FF"/>
<path d="M5.99512 38.1482C5.99512 38.5377 6.31081 38.8535 6.70042 38.8535H26.7342C27.1238 38.8535 27.4395 38.5377 27.4395 38.1482C27.4395 37.7587 27.1238 37.4429 26.7342 37.4429H6.70042C6.31081 37.4429 5.99512 37.7587 5.99512 38.1482Z" fill="#62C6FF"/>
<path d="M6.70042 42.642H26.7342C27.1238 42.642 27.4395 42.3263 27.4395 41.9367C27.4395 41.5472 27.1238 41.2314 26.7342 41.2314H6.70042C6.31081 41.2314 5.99512 41.5472 5.99512 41.9367C5.99512 42.3263 6.31081 42.642 6.70042 42.642Z" fill="#62C6FF"/>
</g>
<defs>
<clipPath id="clip0">
<rect width="48" height="48" fill="white"/>
</clipPath>
</defs>
</svg>
