<svg width="48" height="48" viewBox="0 0 48 48" fill="none" xmlns="http://www.w3.org/2000/svg">
<g clip-path="url(#clip0)">
<path d="M40.57 4.12057C40.5699 4.12057 40.5699 4.12057 40.57 4.12057H40.1899C40.1878 4.12057 40.1858 4.12067 40.1837 4.12067H19.5803C18.2937 2.50454 16.5868 1.29356 14.6217 0.608523C12.4939 -0.133135 10.2197 -0.198264 8.04511 0.420509C5.23832 1.21888 2.91031 3.06272 1.48986 5.6123C0.0694029 8.16188 -0.273068 11.1118 0.525212 13.9186C1.64063 17.8407 4.86277 20.8094 8.8259 21.6301V23.1867C8.8259 23.5783 9.14332 23.8957 9.53485 23.8957C9.92638 23.8957 10.2438 23.5783 10.2438 23.1867V21.8291C10.505 21.8481 10.7666 21.8578 11.0282 21.8578C11.2582 21.8578 11.488 21.8499 11.7174 21.8352L12.269 23.774C11.7422 24.2444 11.5001 24.9931 11.703 25.706L14.6155 35.9463C14.8518 36.7766 15.6109 37.3194 16.4342 37.3194C16.6049 37.3194 16.7785 37.296 16.9507 37.247L19.8543 36.4216C20.092 36.3538 20.3115 36.2402 20.5035 36.0896H30.7809C31.1724 36.0896 31.4899 35.7721 31.4899 35.3806C31.4899 34.9891 31.1724 34.6717 30.7809 34.6717H21.226C21.2328 34.4767 21.2096 34.2791 21.1547 34.0854L19.9841 29.9699H30.7809C31.1724 29.9699 31.4899 29.6525 31.4899 29.2609C31.4899 28.8694 31.1724 28.552 30.7809 28.552H19.5809L18.2436 23.8501H30.7807C31.1722 23.8501 31.4897 23.5327 31.4897 23.1412C31.4897 22.7497 31.1722 22.4322 30.7807 22.4322H16.7251L16.1929 20.561C17.5 19.8621 18.6599 18.8953 19.5862 17.7296H30.7809C31.1724 17.7296 31.4899 17.4122 31.4899 17.0207C31.4899 16.6291 31.1724 16.3117 30.7809 16.3117H20.5433C21.9851 13.7763 22.3542 10.7929 21.5432 7.9405C21.3031 7.09515 20.965 6.29195 20.5378 5.53848H36.3069C35.3304 6.40047 34.7263 7.58432 34.7263 8.88936V32.3557C34.7263 32.7472 35.0437 33.0646 35.4352 33.0646C35.8268 33.0646 36.1442 32.7472 36.1442 32.3557V28.3372H46.1141C47.097 28.3372 47.8966 27.5376 47.8966 26.5548V10.4805C47.8966 6.97359 44.6099 4.12057 40.57 4.12057ZM14.8871 21.1529L15.3302 22.7111C14.8044 22.8597 14.102 23.06 13.5824 23.2087L13.139 21.65C13.4359 21.5915 13.7314 21.5213 14.0231 21.4385C14.3148 21.3556 14.6034 21.2597 14.8871 21.1529ZM16.5628 35.8833C16.3122 35.9547 16.0507 35.8086 15.9793 35.5583L13.0669 25.3179C13.0013 25.0881 13.1201 24.8434 13.338 24.7523C13.6352 24.6657 16.0873 23.969 16.3497 23.8965C16.5829 23.8582 16.813 24.0035 16.8785 24.2333L19.7907 34.4731C19.8347 34.6281 19.7982 34.793 19.6929 34.9145C19.6317 34.9843 19.5552 35.0326 19.466 35.058L16.5628 35.8833ZM18.6679 16.5984C17.7271 17.8668 16.4768 18.8864 15.0505 19.5478C14.597 19.7596 14.1209 19.9367 13.6358 20.0744C13.1491 20.2126 12.6507 20.3127 12.1533 20.3721C11.3194 20.4731 10.4736 20.4612 9.6394 20.3369C5.95096 19.7877 2.9088 17.116 1.88905 13.5306C1.19427 11.0882 1.49241 8.52108 2.72844 6.30235C3.96457 4.08361 5.99038 2.47912 8.43295 1.78434C9.28266 1.54254 10.149 1.4258 11.0087 1.4258C13.97 1.4258 16.8483 2.81232 18.6641 5.25339C19.3519 6.17597 19.8616 7.21037 20.1792 8.32815C20.9932 11.1908 20.4423 14.2053 18.6679 16.5984ZM46.4787 26.5548C46.4787 26.7558 46.3152 26.9193 46.1141 26.9193H36.1442V8.88946C36.1442 7.04353 37.9555 5.5416 40.1833 5.53857H40.19C40.191 5.53857 40.1918 5.53848 40.1928 5.53848H40.5699C43.828 5.53848 46.4787 7.75551 46.4787 10.4805V26.5548Z" fill="#62C6FF"/>
<path d="M8.8466 3.2379C4.60536 4.44435 2.13623 8.87624 3.34258 13.1175C3.92694 15.172 5.27641 16.8761 7.14246 17.9157C8.3491 18.5879 9.67824 18.9302 11.0225 18.9302C11.7571 18.9302 12.4962 18.8279 13.2222 18.6215C15.2767 18.0371 16.9807 16.6877 18.0203 14.8216C19.0599 12.9556 19.3105 10.7965 18.7262 8.74192C17.5199 4.50069 13.0877 2.03155 8.8466 3.2379ZM16.7817 14.1316C15.9265 15.6668 14.5245 16.7769 12.8343 17.2577C11.144 17.7384 9.36772 17.5322 7.83251 16.6769C6.2973 15.8216 5.18718 14.4198 4.70641 12.7295C3.71397 9.24036 5.74526 5.59427 9.23453 4.60174C9.83383 4.4313 10.4377 4.35001 11.032 4.35001C13.8979 4.35001 16.5404 6.23989 17.3624 9.12976C17.8431 10.8201 17.6369 12.5964 16.7817 14.1316Z" fill="#62C6FF"/>
<path d="M35.3915 34.6716C34.9999 34.6716 34.6825 34.9891 34.6825 35.3806V46.221C34.6825 46.4201 34.5206 46.582 34.3215 46.582H10.5611C10.3621 46.582 10.2001 46.4201 10.2001 46.221V26.4005C10.2001 26.009 9.88271 25.6916 9.49118 25.6916C9.09965 25.6916 8.78223 26.009 8.78223 26.4005V46.221C8.78223 47.2019 9.58022 47.9999 10.5611 47.9999H34.3215C35.3024 47.9999 36.1004 47.2019 36.1004 46.221V35.3806C36.1004 34.9891 35.7831 34.6716 35.3915 34.6716Z" fill="#62C6FF"/>
</g>
<defs>
<clipPath id="clip0">
<rect width="48" height="48" fill="white"/>
</clipPath>
</defs>
</svg>
