<svg width="48" height="48" viewBox="0 0 48 48" fill="none" xmlns="http://www.w3.org/2000/svg">
<path d="M47.0189 15.5129C46.6271 15.5129 46.3095 15.8304 46.3095 16.2223V23.1946C46.3095 23.8774 45.7539 24.4328 45.0713 24.4328H30.0653V19.7927C31.97 18.0515 33.0563 15.5976 33.0563 13.0072C33.0563 7.93484 28.9297 3.80823 23.8574 3.80823C18.7851 3.80823 14.6584 7.93484 14.6584 13.0072C14.6584 15.3071 15.5117 17.5086 17.061 19.206C18.4537 20.7317 20.3013 21.7337 22.317 22.0738V24.4328H9.00191C8.61012 24.4328 8.29248 24.7503 8.29248 25.1422C8.29248 25.5341 8.61012 25.8517 9.00191 25.8517H12.5659C11.2993 27.6198 8.77962 32.8972 12.7714 43.7128V47.2906C12.7714 47.6825 13.089 48 13.4808 48C13.8726 48 14.1902 47.6825 14.1902 47.2906V43.5855C14.1902 43.5011 14.1751 43.4174 14.1457 43.3382C11.6888 36.7352 11.8215 32.4133 12.3654 29.9504C12.9408 27.3449 14.0854 26.2286 14.116 26.1994C14.2211 26.1024 14.29 25.9809 14.3225 25.8517H22.2385C21.7721 26.21 20.9996 26.8962 20.3277 27.9327C19.3857 29.3858 18.4617 31.8324 19.4098 35.2356C19.4972 35.5494 19.7823 35.7548 20.0929 35.7548C20.1559 35.7548 20.22 35.7463 20.2837 35.7286C20.6611 35.6236 20.8819 35.2323 20.7767 34.8549C19.2508 29.3779 23.2245 26.8739 23.3922 26.7714C23.6054 26.6431 23.7358 26.4123 23.7358 26.1634V17.5429C23.7358 15.9655 24.8373 14.6822 26.1911 14.6822C27.545 14.6822 28.6464 15.9655 28.6464 17.5429V28.0792C28.6464 28.4711 28.9641 28.7886 29.3559 28.7886C29.7477 28.7886 30.0653 28.4711 30.0653 28.0792V25.8517H36.2794C36.028 28.8577 34.9904 35.8219 32.4656 39.7209C32.3913 39.8358 32.3516 39.9697 32.3516 40.1065V41.4781C32.3516 41.8699 32.6693 42.1875 33.0611 42.1875C33.4529 42.1875 33.7705 41.8699 33.7705 41.4781V40.3128C36.3994 36.096 37.4597 28.8738 37.7027 25.8517H45.0713C46.5364 25.8517 47.7283 24.6597 47.7283 23.1946V16.2223C47.7283 15.8304 47.4107 15.5129 47.0189 15.5129ZM26.1911 13.2633C24.0549 13.2633 22.317 15.1831 22.317 17.5429V20.6338C18.7097 19.9182 16.0773 16.7671 16.0773 13.0072C16.0773 8.71721 19.5674 5.22709 23.8574 5.22709C28.1474 5.22709 31.6375 8.71721 31.6375 13.0072C31.6375 14.7177 31.0775 16.358 30.0653 17.6959V17.5429C30.0653 15.1831 28.3274 13.2633 26.1911 13.2633Z" fill="#62C6FF"/>
<path d="M45.071 0H2.92997C1.46429 0 0.271973 1.19232 0.271973 2.658V23.1946C0.271973 24.6597 1.46429 25.8517 2.92997 25.8517H5.78567C6.17746 25.8517 6.4951 25.5341 6.4951 25.1422C6.4951 24.7503 6.17746 24.4328 5.78567 24.4328H2.92997C2.24674 24.4328 1.69083 23.8774 1.69083 23.1946V2.658C1.69083 1.97477 2.24674 1.41886 2.92997 1.41886H45.0711C45.7539 1.41886 46.3093 1.97477 46.3093 2.658V13.0062C46.3093 13.3981 46.6269 13.7157 47.0187 13.7157C47.4105 13.7157 47.7282 13.3981 47.7282 13.0062V2.658C47.7282 1.19232 46.5362 0 45.071 0V0Z" fill="#62C6FF"/>
<path d="M33.061 43.9847C32.6692 43.9847 32.3516 44.3023 32.3516 44.6942V47.092C32.3516 47.4839 32.6692 47.8015 33.061 47.8015C33.4528 47.8015 33.7704 47.4839 33.7704 47.092V44.6942C33.7704 44.3023 33.4528 43.9847 33.061 43.9847Z" fill="#62C6FF"/>
</svg>
