<svg width="48" height="48" viewBox="0 0 48 48" fill="none" xmlns="http://www.w3.org/2000/svg">
<g clip-path="url(#clip0)">
<path d="M23.2055 19.0686C23.2002 19.0686 23.1955 19.0686 23.1902 19.0686C18.9112 19.0686 15.4255 22.5772 15.417 26.8966C15.4086 31.2213 18.8887 34.7466 23.1749 34.7549H23.1902C27.4692 34.7549 30.9549 31.2463 30.9634 26.927C30.9718 22.6024 27.4917 19.0771 23.2055 19.0686ZM23.1901 33.346C23.1861 33.346 23.1816 33.346 23.1776 33.346C19.6684 33.3392 16.8191 30.4472 16.826 26.8994C16.8329 23.3556 19.6867 20.4776 23.1903 20.4776H23.2028C26.712 20.4845 29.5613 23.3764 29.5544 26.9243C29.5475 30.468 26.6937 33.3462 23.1901 33.346Z" fill="#62C6FF"/>
<path d="M3.75569 30.9285L3.75147 33.0977C3.74968 34.0228 4.57386 34.5042 5.36158 34.5608C5.93561 36.4735 7.69094 37.8098 9.74048 37.8138L29.6752 37.8524H29.6833C32.2069 37.8524 34.2626 35.8019 34.267 33.2784L34.2895 23.344C34.2905 22.955 33.9757 22.6388 33.5866 22.6379C33.5861 22.6379 33.5856 22.6379 33.585 22.6379C33.1966 22.6379 32.8815 22.9523 32.8805 23.3408L32.858 33.2756C32.855 35.0235 31.4313 36.4434 29.6834 36.4434C29.6815 36.4434 29.6796 36.4434 29.6778 36.4434L9.7432 36.4049C8.46975 36.4025 7.36039 35.6577 6.85841 34.5486C7.56911 34.4521 8.11984 33.8435 8.12125 33.1064L8.12548 30.9372C8.12623 30.5472 7.97509 30.1802 7.69996 29.904C7.35823 29.6072 6.98569 29.4639 6.58225 29.4742L6.59267 24.2016L6.65843 24.2017H6.66134C7.46503 24.2017 8.11966 23.5486 8.12125 22.7446L8.12548 20.5754C8.12689 19.8582 7.60781 19.2604 6.92529 19.1371C7.44803 18.0758 8.54067 17.3675 9.77354 17.3675H9.77984L29.7144 17.406C31.2792 17.409 32.5951 18.5307 32.8434 20.073C32.8991 20.4192 33.1982 20.6657 33.5381 20.6657C33.5753 20.6657 33.613 20.6628 33.6509 20.6567C34.035 20.5949 34.2963 20.2333 34.2345 19.8492C33.8761 17.6216 31.9763 16.0015 29.7172 15.9971L9.78265 15.9586C9.77955 15.9586 9.77664 15.9586 9.77345 15.9586C7.77229 15.9586 6.02654 17.2524 5.4186 19.1103C4.57 19.1033 3.75757 19.5979 3.75569 20.567L3.75147 22.7362C3.74996 23.5328 4.39022 24.1827 5.18367 24.1977L5.17324 29.4739C4.38928 29.4962 3.75729 30.1388 3.75569 30.9285ZM6.70173 30.8983C6.71657 30.9132 6.71657 30.9292 6.71657 30.9343L6.71234 33.1035C6.71225 33.1316 6.68942 33.1545 6.66134 33.1545C6.66134 33.1545 6.66134 33.1545 6.66124 33.1545L5.21129 33.1516C5.18029 33.1486 5.16329 33.1316 5.16047 33.1006L5.1647 30.9314C5.16479 30.9033 5.18762 30.8805 5.2157 30.8805H5.2158L6.66585 30.8833C6.67101 30.8832 6.68689 30.8833 6.70173 30.8983ZM5.16056 22.7386L5.16479 20.5694C5.17484 20.5355 5.19184 20.5185 5.21589 20.5185L6.66585 20.5213C6.69393 20.5213 6.71676 20.5443 6.71666 20.5723L6.71244 22.7416C6.71234 22.7696 6.68952 22.7925 6.66143 22.7925C6.66143 22.7925 6.66143 22.7925 6.66134 22.7925L5.21138 22.7896C5.1833 22.7896 5.16047 22.7668 5.16056 22.7386Z" fill="#62C6FF"/>
<path d="M39.7337 0C35.2275 0 31.5615 3.66604 31.5615 8.17221C31.5615 8.88019 31.6521 9.56731 31.822 10.2228L4.95444 10.1711C4.95106 10.1711 4.94777 10.1711 4.94439 10.1711C2.29922 10.1711 0.144391 12.3204 0.138942 14.967L0.0937604 38.2576C0.0911302 39.5411 0.588602 40.7488 1.4945 41.6582C2.4003 42.5675 3.60603 43.0696 4.88963 43.0723L5.22798 43.0729L5.22243 45.9048C5.22009 47.0337 6.13659 47.954 7.26577 47.9563L11.5616 47.9641H11.566C12.6928 47.9641 13.6109 47.0485 13.6132 45.9209L13.6188 43.0893L24.8099 43.1113L24.8049 45.9406C24.8037 46.4875 25.0156 47.0021 25.4016 47.3896C25.7875 47.777 26.3012 47.991 26.8483 47.9922L31.1442 48H31.1486C31.6936 48 32.2063 47.7882 32.5927 47.4032C32.98 47.0174 33.1938 46.5036 33.195 45.9569L33.2006 43.128L34.5041 43.1305H34.5124C35.793 43.1305 36.9974 42.6331 37.9047 41.7294C38.8143 40.8234 39.3163 39.6174 39.3185 38.3338L39.3326 31.4222C39.3334 31.0331 39.0186 30.717 38.6296 30.7162C38.629 30.7162 38.6286 30.7162 38.6281 30.7162C38.2397 30.7162 37.9244 31.0307 37.9236 31.4193L37.9095 38.3312C37.908 39.2385 37.5531 40.0908 36.9103 40.7311C36.2689 41.3699 35.4175 41.7215 34.5125 41.7215C34.5106 41.7215 34.5086 41.7215 34.5067 41.7215L4.89235 41.6632C3.98505 41.6614 3.13288 41.3064 2.49254 40.6637C1.85238 40.021 1.50079 39.1675 1.50267 38.2604L1.54776 14.9697C1.55161 13.099 3.07446 11.58 4.9443 11.58H4.95144L32.3314 11.6327C33.3928 13.8941 35.4604 15.5928 37.9541 16.1487L37.949 28.1328C37.9488 28.5219 38.264 28.8374 38.6532 28.8376H38.6535C39.0424 28.8376 39.3578 28.5223 39.358 28.1334L39.3632 16.3356C39.4861 16.3411 39.6095 16.3443 39.7337 16.3443C44.2399 16.3443 47.9059 12.6783 47.9059 8.17212C47.9059 3.66594 44.2399 0 39.7337 0V0ZM12.2042 45.9181C12.2035 46.2696 11.9173 46.5551 11.5658 46.5551C11.5653 46.5551 11.5648 46.5551 11.5644 46.5551L7.26849 46.5473C6.91652 46.5466 6.63068 46.2596 6.63144 45.9076L6.63698 43.0756L12.2098 43.0866L12.2042 45.9181ZM31.786 45.9539C31.7856 46.1245 31.7189 46.2848 31.5981 46.4052C31.4778 46.5251 31.3183 46.5911 31.1484 46.5911C31.1479 46.5911 31.1474 46.5911 31.1469 46.5911L26.8511 46.5833C26.4991 46.5825 26.2133 46.2956 26.214 45.9434L26.219 43.1142L31.7916 43.1252L31.786 45.9539ZM39.7337 14.9354C36.0044 14.9354 32.9705 11.9015 32.9705 8.17221C32.9705 4.44296 36.0044 1.409 39.7337 1.409C43.4629 1.409 46.4969 4.44296 46.4969 8.17221C46.4969 11.9015 43.4629 14.9354 39.7337 14.9354Z" fill="#62C6FF"/>
<path d="M43.6882 4.89155C43.3809 4.65306 42.9383 4.70895 42.6997 5.0163L38.9787 9.81226L36.7254 7.40859C36.4592 7.12473 36.0135 7.11026 35.7295 7.37647C35.4457 7.64258 35.4312 8.08848 35.6974 8.37226L38.5154 11.3781C38.6489 11.5205 38.835 11.6008 39.0294 11.6008C39.0403 11.6008 39.0513 11.6006 39.0622 11.6001C39.2681 11.5905 39.4596 11.4911 39.586 11.3283L43.813 5.88011C44.0514 5.57266 43.9955 5.13005 43.6882 4.89155Z" fill="#62C6FF"/>
<path d="M23.1902 22.0275C20.4968 22.0275 18.3057 24.2187 18.3057 26.912C18.3057 29.6054 20.4968 31.7965 23.1902 31.7965C25.8835 31.7965 28.0747 29.6054 28.0747 26.912C28.0747 24.2187 25.8835 22.0275 23.1902 22.0275ZM23.1902 30.3875C21.2738 30.3875 19.7147 28.8284 19.7147 26.912C19.7147 24.9956 21.2738 23.4365 23.1902 23.4365C25.1066 23.4365 26.6657 24.9956 26.6657 26.912C26.6657 28.8284 25.1066 30.3875 23.1902 30.3875Z" fill="#62C6FF"/>
</g>
<defs>
<clipPath id="clip0">
<rect width="48" height="48" fill="white"/>
</clipPath>
</defs>
</svg>
