<svg width="16" height="16" viewBox="0 0 16 16" fill="none" xmlns="http://www.w3.org/2000/svg">
<path d="M7.99961 1.59998C11.5356 1.59998 14.3996 4.46398 14.3996 7.99998C14.3996 11.536 11.5356 14.4 7.99961 14.4C4.46361 14.4 1.59961 11.536 1.59961 7.99998C1.59961 4.46398 4.46361 1.59998 7.99961 1.59998ZM7.99961 12.8C10.6476 12.8 12.7996 10.648 12.7996 7.99998C12.7996 5.35198 10.6476 3.19998 7.99961 3.19998C5.35161 3.19998 3.19961 5.35198 3.19961 7.99998C3.19961 10.648 5.35161 12.8 7.99961 12.8ZM7.43161 8.56798C7.48761 8.60798 7.54361 8.64797 7.61561 8.68797L7.59961 8.70398L11.1996 10.4L8.77561 7.84798L7.99961 3.99998L7.22361 7.84798H7.23161C7.23161 7.86398 7.22361 7.88797 7.21561 7.91997C7.20761 7.95197 7.19961 7.97598 7.19961 7.99998C7.19961 8.22398 7.27961 8.41598 7.43161 8.56798Z" fill="#89939E"/>
</svg>
