<svg width="24" height="25" viewBox="0 0 24 25" fill="none" xmlns="http://www.w3.org/2000/svg">
<path d="M4.38226 0C1.95468 0 0 2.03577 0 4.56405V20.4316C0 22.9599 1.95468 24.9956 4.38226 24.9956H12.6398V15.2239H10.1588V11.7058H12.6398V8.70005C12.6398 6.33859 14.1057 4.17037 17.4825 4.17037C18.8497 4.17037 19.8608 4.30707 19.8608 4.30707L19.7813 7.59244C19.7813 7.59244 18.7501 7.58229 17.625 7.58229C16.4073 7.58229 16.212 8.16664 16.212 9.13672V11.7058H19.878L19.7183 15.2239H16.212V24.9957H19.6177C22.0453 24.9957 24 22.9599 24 20.4316V4.56407C24 2.03579 22.0453 2.49956e-05 19.6177 2.49956e-05H4.38223L4.38226 0Z" fill="#94A8B4"/>
</svg>
