<svg width="28" height="28" viewBox="0 0 28 28" fill="none" xmlns="http://www.w3.org/2000/svg">
<path d="M13.9996 8.39179C10.8961 8.39179 8.39144 10.8965 8.39144 14C8.39144 17.1035 10.8961 19.6082 13.9996 19.6082C17.1032 19.6082 19.6078 17.1035 19.6078 14C19.6078 10.8965 17.1032 8.39179 13.9996 8.39179ZM13.9996 17.6449C11.9926 17.6449 10.3547 16.007 10.3547 14C10.3547 11.993 11.9926 10.3551 13.9996 10.3551C16.0067 10.3551 17.6446 11.993 17.6446 14C17.6446 16.007 16.0067 17.6449 13.9996 17.6449ZM19.8375 6.85507C19.1129 6.85507 18.5278 7.44023 18.5278 8.16484C18.5278 8.88945 19.1129 9.4746 19.8375 9.4746C20.5621 9.4746 21.1473 8.89218 21.1473 8.16484C21.1475 7.99278 21.1138 7.82236 21.048 7.66336C20.9823 7.50435 20.8858 7.35988 20.7642 7.23821C20.6425 7.11655 20.498 7.02008 20.339 6.95433C20.18 6.88859 20.0096 6.85486 19.8375 6.85507ZM24.9317 14C24.9317 12.4906 24.9453 10.9949 24.8606 9.48828C24.7758 7.73828 24.3766 6.18515 23.0969 4.90546C21.8145 3.62304 20.2641 3.22656 18.5141 3.14179C17.0047 3.05703 15.509 3.0707 14.0024 3.0707C12.493 3.0707 10.9973 3.05703 9.49066 3.14179C7.74066 3.22656 6.18753 3.62578 4.90784 4.90546C3.62542 6.18789 3.22894 7.73828 3.14417 9.48828C3.05941 10.9977 3.07308 12.4934 3.07308 14C3.07308 15.5066 3.05941 17.0051 3.14417 18.5117C3.22894 20.2617 3.62816 21.8148 4.90784 23.0945C6.19027 24.3769 7.74066 24.7734 9.49066 24.8582C11 24.943 12.4957 24.9293 14.0024 24.9293C15.5117 24.9293 17.0075 24.943 18.5141 24.8582C20.2641 24.7734 21.8172 24.3742 23.0969 23.0945C24.3793 21.8121 24.7758 20.2617 24.8606 18.5117C24.9481 17.0051 24.9317 15.5094 24.9317 14ZM22.5254 20.4477C22.3258 20.9453 22.0852 21.3172 21.6996 21.7C21.3141 22.0855 20.945 22.3262 20.4473 22.5258C19.009 23.0973 15.5938 22.9687 13.9996 22.9687C12.4055 22.9687 8.98753 23.0973 7.54925 22.5285C7.05159 22.3289 6.67972 22.0883 6.29691 21.7027C5.91136 21.3172 5.67074 20.948 5.47113 20.4504C4.90238 19.0094 5.03089 15.5941 5.03089 14C5.03089 12.4059 4.90238 8.98789 5.47113 7.5496C5.67074 7.05195 5.91136 6.68007 6.29691 6.29726C6.68245 5.91445 7.05159 5.67109 7.54925 5.47148C8.98753 4.90273 12.4055 5.03125 13.9996 5.03125C15.5938 5.03125 19.0118 4.90273 20.45 5.47148C20.9477 5.67109 21.3196 5.91171 21.7024 6.29726C22.0879 6.68281 22.3285 7.05195 22.5282 7.5496C23.0969 8.98789 22.9684 12.4059 22.9684 14C22.9684 15.5941 23.0969 19.0094 22.5254 20.4477Z" fill="#94A8B4"/>
</svg>
