<svg width="22" height="23" viewBox="0 0 22 23" fill="none" xmlns="http://www.w3.org/2000/svg">
<path d="M16 1.08301H6C3.23858 1.08301 1 3.41445 1 6.29043V16.7053C1 19.5812 3.23858 21.9127 6 21.9127H16C18.7614 21.9127 21 19.5812 21 16.7053V6.29043C21 3.41445 18.7614 1.08301 16 1.08301Z" stroke="#94A8B4" stroke-width="2" stroke-linecap="round" stroke-linejoin="round"/>
<path d="M15.0001 10.8415C15.1235 11.7083 14.9813 12.5935 14.5938 13.3713C14.2063 14.149 13.5932 14.7798 12.8417 15.1737C12.0902 15.5677 11.2385 15.7048 10.4079 15.5656C9.5772 15.4264 8.80983 15.0179 8.21491 14.3983C7.61999 13.7787 7.22781 12.9795 7.09414 12.1144C6.96048 11.2493 7.09214 10.3623 7.4704 9.5796C7.84866 8.7969 8.45426 8.15835 9.20106 7.75478C9.94786 7.35121 10.7978 7.20316 11.6301 7.33169C12.479 7.46279 13.2649 7.87478 13.8718 8.5068C14.4786 9.13882 14.8742 9.95735 15.0001 10.8415Z" stroke="#94A8B4" stroke-width="2" stroke-linecap="round" stroke-linejoin="round"/>
<path d="M16.5 5.76953H16.5095" stroke="#94A8B4" stroke-width="2" stroke-linecap="round" stroke-linejoin="round"/>
</svg>
