<svg width="20" height="19" viewBox="0 0 20 19" fill="none" xmlns="http://www.w3.org/2000/svg">
<path d="M10 9.2C11.0384 9.2 12.0534 8.93828 12.9167 8.44793C13.7801 7.95759 14.453 7.26064 14.8504 6.44522C15.2477 5.62981 15.3517 4.73255 15.1491 3.86691C14.9466 3.00127 14.4465 2.20613 13.7123 1.58204C12.9781 0.957944 12.0426 0.532932 11.0242 0.360745C10.0058 0.188559 8.95022 0.276931 7.99091 0.614687C7.0316 0.952443 6.21166 1.52441 5.63478 2.25827C5.05791 2.99212 4.75 3.8549 4.75 4.7375C4.75 5.92103 5.30312 7.05608 6.28769 7.89296C7.27226 8.72984 8.60761 9.2 10 9.2ZM10 10.475C6.74594 10.475 0.25 12.1835 0.25 15.575V18.125H19.75V15.575C19.75 12.1835 13.2541 10.475 10 10.475Z" fill="#0083CD"/>
</svg>
