<svg width="34" height="34" viewBox="0 0 34 34" fill="none" xmlns="http://www.w3.org/2000/svg">
<path d="M2.32422 0.890625L4.375 6.33984L6.4209 0.890625H8.01758V8H6.78711V5.65625L6.90918 2.52148L4.80957 8H3.92578L1.83105 2.52637L1.95312 5.65625V8H0.722656V0.890625H2.32422ZM13.8477 8H12.6611V3.67383H10.6006V8H9.41406V2.7168H13.8477V8ZM16.9873 5.91016H16.3867V8H15.2002V2.7168H16.3867V4.82617H16.9092L18.3691 2.7168H19.834L17.9248 5.24609L19.9951 8H18.4521L16.9873 5.91016ZM13.9648 30H11.2578V16.5508H4.37207V30H1.66504V14.3594H13.9648V30ZM25.7812 15.8418H26.0176C27.2207 15.8418 28.3128 16.1139 29.2939 16.6582C30.2822 17.1953 31.0485 17.9544 31.5928 18.9355C32.1442 19.9167 32.4199 21.0195 32.4199 22.2441C32.4199 23.4616 32.1442 24.5573 31.5928 25.5312C31.0485 26.498 30.2894 27.25 29.3154 27.7871C28.3486 28.3242 27.2637 28.5964 26.0605 28.6035H25.7812V30.6445H23.1709V28.6035H22.9131C21.7028 28.6035 20.6035 28.335 19.6152 27.7979C18.627 27.2536 17.8607 26.498 17.3164 25.5312C16.7793 24.5645 16.5107 23.4759 16.5107 22.2656C16.5107 21.041 16.7829 19.9382 17.3271 18.957C17.8714 17.9759 18.6341 17.2132 19.6152 16.6689C20.5964 16.1175 21.6956 15.8418 22.9131 15.8418H23.1709V13.7148H25.7812V15.8418ZM22.9131 18.0225C21.71 18.0225 20.7682 18.3984 20.0879 19.1504C19.4147 19.9023 19.0781 20.9408 19.0781 22.2656C19.0781 23.5547 19.4147 24.5716 20.0879 25.3164C20.7611 26.054 21.7135 26.4229 22.9453 26.4229H23.1709V18.0225H22.9131ZM25.7812 18.0225V26.4229H26.0391C27.2422 26.4229 28.1768 26.0469 28.8428 25.2949C29.516 24.543 29.8525 23.526 29.8525 22.2441C29.8525 20.9336 29.516 19.9023 28.8428 19.1504C28.1768 18.3984 27.2314 18.0225 26.0068 18.0225H25.7812Z" fill="white"/>
</svg>
