<svg xmlns="http://www.w3.org/2000/svg" viewBox="0 0 583.13 167.12"><defs><style>.cls-1,.cls-3{fill:#005b8e;}.cls-2{fill:#00aeef;}.cls-2,.cls-3,.cls-4{fill-rule:evenodd;}.cls-4{fill:#fff;}</style></defs><title>1Ресурс 2</title><g id="Слой_2" data-name="Слой 2"><g id="_1" data-name="???? 1"><circle class="cls-1" cx="290.11" cy="55" r="55"/><path class="cls-2" d="M290.11,0a54.81,54.81,0,0,1,36.75,14.08l-6.09,6.31L289.66,51.7l4,4.55-40,40A55,55,0,0,1,290.11,0Z"/><path class="cls-3" d="M8.88,121.05V155H0V114.33H32.57V155H23.69V121.05Zm33.47,14.46-3.19-5.24a21.67,21.67,0,0,1,12.07-3.87q6.9,0,9.06,3.19a11.88,11.88,0,0,1,2.16,6.78v8.37A7.85,7.85,0,0,0,63,147.9c.34.78,1.15,1.15,2.44,1.11v6.09a7.9,7.9,0,0,1-2.67.51q-4.22,0-6-3.07a14.38,14.38,0,0,1-9.17,3.07q-4.89.06-7.14-2.36a8.12,8.12,0,0,1-2.25-5.72,9.12,9.12,0,0,1,3.75-7.46q3.77-3,12.65-3a3.07,3.07,0,0,0,.05-.69,10.42,10.42,0,0,0-.05-1.25c-.31-1.67-1.69-2.49-4.16-2.45a14.85,14.85,0,0,0-8,2.79Zm12.19,7.18a12.11,12.11,0,0,0-5.93,1,3.42,3.42,0,0,0-2.27,3.24,2.35,2.35,0,0,0,1,1.85,3.56,3.56,0,0,0,2.42.43A9.83,9.83,0,0,0,54.54,147v-4.33Zm23.27,9.74v14.69H70.07v-40h7.74v3.48q2.85-4.16,8.49-4.16,3,0,7.14,2.82t4.13,12a18.25,18.25,0,0,1-2.85,10,9.76,9.76,0,0,1-8.25,4.32,10.71,10.71,0,0,1-8.66-3.18Zm-.17-11.11c0,2.77.57,4.75,1.71,5.92A5,5,0,0,0,83,149a5,5,0,0,0,3.62-1.77c1.12-1.17,1.68-3.15,1.68-5.92a10.42,10.42,0,0,0-.88-4.64,5.45,5.45,0,0,0-2.11-2.42,4.73,4.73,0,0,0-2.31-.68,5,5,0,0,0-3.64,1.76q-1.71,1.77-1.71,6Zm27-5.81-3.19-5.24a21.67,21.67,0,0,1,12.07-3.87q6.9,0,9.06,3.19a11.88,11.88,0,0,1,2.16,6.78v8.37a7.85,7.85,0,0,0,.52,3.16c.34.78,1.15,1.15,2.44,1.11v6.09a7.9,7.9,0,0,1-2.67.51q-4.22,0-6-3.07a14.38,14.38,0,0,1-9.17,3.07q-4.89.06-7.14-2.36a8.12,8.12,0,0,1-2.25-5.72,9.1,9.1,0,0,1,3.76-7.46q3.75-3,12.64-3a3.07,3.07,0,0,0,0-.69,10.42,10.42,0,0,0,0-1.25c-.31-1.67-1.69-2.49-4.16-2.45a14.85,14.85,0,0,0-8,2.79Zm12.19,7.18a12,12,0,0,0-5.92,1,3.41,3.41,0,0,0-2.28,3.24,2.35,2.35,0,0,0,1,1.85,3.56,3.56,0,0,0,2.42.43,9.83,9.83,0,0,0,4.79-2.16v-4.33Zm23.38-5.36V155h-7.85V127.08H142l6.15,13.9,6.21-13.9h9.56V155h-7.85V137.33L150.61,151h-4.9l-5.47-13.67Zm33.19-1.82-3.19-5.24a21.64,21.64,0,0,1,12.07-3.87q6.88,0,9.05,3.19a11.81,11.81,0,0,1,2.17,6.78v8.37a8,8,0,0,0,.51,3.16c.34.78,1.16,1.15,2.45,1.11v6.09a8,8,0,0,1-2.68.51q-4.22,0-6-3.07a14.4,14.4,0,0,1-9.17,3.07q-4.91.06-7.15-2.36a8.12,8.12,0,0,1-2.25-5.72,9.13,9.13,0,0,1,3.76-7.46q3.76-3,12.64-3a3,3,0,0,0,.06-.69,10.06,10.06,0,0,0-.06-1.25c-.3-1.67-1.69-2.49-4.15-2.45a14.83,14.83,0,0,0-8,2.79Zm12.18,7.18a12.07,12.07,0,0,0-5.92,1,3.41,3.41,0,0,0-2.28,3.24,2.36,2.36,0,0,0,1,1.85,3.55,3.55,0,0,0,2.42.43,9.8,9.8,0,0,0,4.78-2.16v-4.33Zm28.12-18.51a8.9,8.9,0,0,1-7.29-3.47,14.15,14.15,0,0,1-2.74-7.64h5.13a8.15,8.15,0,0,0,1.2,3.76,4,4,0,0,0,3.7,1.88,4.11,4.11,0,0,0,3.73-1.91,7.16,7.16,0,0,0,1.11-3.73h5.07a14,14,0,0,1-2.65,7.61,8.81,8.81,0,0,1-7.26,3.5ZM209,141.66l9.34-10.25v-4.33h7.92V155h-7.92V140.75L209,151v4h-7.86V127.08H209v14.58ZM241.78,144v11h-7.86V127.08h7.86v10.43h11V127.08h7.86V155h-7.86V144Zm46.51,2.05,4,4.1a17.12,17.12,0,0,1-5.53,4.15,15.64,15.64,0,0,1-6.55,1.31A13.7,13.7,0,0,1,270,151.43a15.07,15.07,0,0,1-4.07-10.57q0-6.95,4-10.7a13.44,13.44,0,0,1,9.46-3.76,13.88,13.88,0,0,1,9,3.39q4.13,3.39,3.9,12.9h-17.6a6.09,6.09,0,0,0,3.05,5.44,6.63,6.63,0,0,0,3.33.82q3,.06,7.23-2.9Zm-4.1-8.54a5.43,5.43,0,0,0-1.25-3.91,4.24,4.24,0,0,0-3.25-1.45,4.41,4.41,0,0,0-3.33,1.2,5.5,5.5,0,0,0-1.51,4.16ZM297.84,155V127.08h7.86v9.8a3,3,0,0,0,3.07-1.31,12.92,12.92,0,0,0,1.71-2.39,22.21,22.21,0,0,1,4-5.1,7.29,7.29,0,0,1,4.78-1.68,7.11,7.11,0,0,1,2.85.57v6.38a3.32,3.32,0,0,0-3,1.08,12.14,12.14,0,0,0-1.77,2.28,7.82,7.82,0,0,1-4.1,3.19q3.19.67,6.27,6.66a5.62,5.62,0,0,0,1.14,1.77A2.93,2.93,0,0,0,323,149v6.09a12,12,0,0,1-2.9.51q-4.33,0-7.06-4.27c-.27-.49-.54-1-.83-1.62s-.52-1.05-.71-1.39-.38-.9-.57-1.31-.4-.84-.63-1.26a12.38,12.38,0,0,0-.68-1.31A3.85,3.85,0,0,0,305.7,143v12Zm50.32-9.23,5.3,4.62q-4.33,5.3-12.07,5.23a15.83,15.83,0,0,1-8.43-2.1A12.3,12.3,0,0,1,328,148a15.86,15.86,0,0,1-1.34-7.2,16.54,16.54,0,0,1,3.82-9.94q3.58-4.41,11.22-4.47a15.16,15.16,0,0,1,10.48,3.76l-4,5.24a8.24,8.24,0,0,0-6.32-2.28,7.26,7.26,0,0,0-4.21,2.19c-1.22,1.24-1.84,3.11-1.88,5.61s.52,4.51,1.56,5.78a6,6,0,0,0,4.08,2.19A7.39,7.39,0,0,0,348.16,145.76Z"/><path class="cls-2" d="M394.67,155v-6a5.21,5.21,0,0,1-.6,0,6.49,6.49,0,0,0-.71,0,24.78,24.78,0,0,1-7.63-1,13.35,13.35,0,0,1-6.61-5.64,18.18,18.18,0,0,1-2.56-9.8,21.4,21.4,0,0,1,1.37-7.34,13.4,13.4,0,0,1,5.41-6.49q4-2.75,11.33-2.45v-4.79h8.77v4.79q7.51-.28,11.65,2.45a13.32,13.32,0,0,1,5.49,6.49,21.4,21.4,0,0,1,1.37,7.34,18.21,18.21,0,0,1-2.59,9.8,13,13,0,0,1-6.81,5.64,25.87,25.87,0,0,1-7.8,1,6.49,6.49,0,0,0-.71,0,5.21,5.21,0,0,1-.6,0v6Zm0-32.12q-9.29-.86-9.28,9.68,0,5.7,2.19,7.94c1.46,1.5,3.83,2.14,7.09,1.91V122.87Zm8.77-.06V142.4q5.07.34,7.4-1.91t2.34-7.94q0-10.31-9.74-9.74Zm32,18.85,9.34-10.25v-4.33h7.91V155h-7.91V140.75L435.43,151v4h-7.86V127.08h7.86v14.58ZM468.21,144v11h-7.86V127.08h7.86v10.43h11V127.08h7.86V155H479.2V144Zm28.34-8.49-3.19-5.24a21.67,21.67,0,0,1,12.07-3.87q6.9,0,9.06,3.19a11.88,11.88,0,0,1,2.16,6.78v8.37a7.85,7.85,0,0,0,.52,3.16c.34.78,1.15,1.15,2.44,1.11v6.09a7.9,7.9,0,0,1-2.67.51q-4.22,0-6-3.07a14.38,14.38,0,0,1-9.17,3.07q-4.89.06-7.14-2.36a8.12,8.12,0,0,1-2.25-5.72,9.1,9.1,0,0,1,3.76-7.46q3.75-3,12.64-3a3.07,3.07,0,0,0,.05-.69,10.42,10.42,0,0,0-.05-1.25c-.31-1.67-1.69-2.49-4.16-2.45a14.85,14.85,0,0,0-8,2.79Zm12.19,7.18a12,12,0,0,0-5.92,1,3.41,3.41,0,0,0-2.28,3.24,2.35,2.35,0,0,0,1,1.85,3.56,3.56,0,0,0,2.42.43,9.83,9.83,0,0,0,4.79-2.16v-4.33ZM532.12,144v11h-7.85V127.08h7.85v10.43h11V127.08H551V155h-7.85V144Zm45.71,1.76,5.3,4.62q-4.32,5.3-12.07,5.23a15.83,15.83,0,0,1-8.43-2.1,12.3,12.3,0,0,1-4.93-5.5,15.72,15.72,0,0,1-1.33-7.2,16.47,16.47,0,0,1,3.81-9.94q3.59-4.41,11.22-4.47a15.14,15.14,0,0,1,10.48,3.76l-4,5.24a8.24,8.24,0,0,0-6.32-2.28,7.26,7.26,0,0,0-4.21,2.19c-1.22,1.24-1.84,3.11-1.88,5.61s.52,4.51,1.57,5.78a5.93,5.93,0,0,0,4.07,2.19A7.38,7.38,0,0,0,577.83,145.76Z"/><path class="cls-4" d="M255.44,86.12l3.08-3.1-2.59-3.24A43,43,0,0,1,250.2,68.9c-5.34-15.31-1.43-31.4,9.21-43a46.4,46.4,0,0,1,4.94-4.44,41,41,0,0,1,20-8.37,42.17,42.17,0,0,1,24,3.76,31.82,31.82,0,0,1,6,3.56l-27.92,28A18,18,0,0,1,284.73,47c-.6-.55-1.18-1-1.82-1.52-3.75-3-8.13-5.85-13.2-6.77a13.53,13.53,0,0,0-15.92,10,13.26,13.26,0,0,0,5,14c6.36,4.51,13.76,2.85,19.6-1.42a21.89,21.89,0,0,0,2.78-2.18l.81-.82-2.76-2.76-1.61,1.36c-3.92,3.44-10.49,6.17-15.38,3.32A9.38,9.38,0,0,1,257.46,53a9.59,9.59,0,0,1,.85-5.07,10.13,10.13,0,0,1,2.75-3.41c6.5-5.47,15.84,1.2,20.76,5.28,2.22,1.84,4.11,3.9,6.13,5.93.86.87,2.16,2.34,3,3-1.51,1.27-14.15,14.15-15.61,15.6-.61.61-15.13,14.88-15.57,15.72,1,.65,2,1.53,3,2.31A44.63,44.63,0,0,0,273.18,98a46.47,46.47,0,0,0,35.91-.86,43.67,43.67,0,0,0,15.54-11.4,55.23,55.23,0,0,0,6.58-9.49,46.23,46.23,0,0,0,2.86-35.76,49.08,49.08,0,0,0-6.31-12.45l-1.17-1.65-2.73,2-.47.42,1,1.36,2.75,4.35a36.53,36.53,0,0,1,2.93,6.58,42.74,42.74,0,0,1,2.23,16.65A41.69,41.69,0,0,1,320.73,84c-3.81,3.75-5.49,5.37-10.68,8.2-11.36,6.18-26.53,6.71-38.21.85-2.27-1.14-3.94-2.26-6-3.5.4-.72,23.16-23.26,26.15-26.24a16.16,16.16,0,0,1,1.85-1.78l3.56,3c3.63,2.84,8.08,5.81,13,6.69C323,73.53,330.94,60.4,324.66,50.73c-4.2-6.46-11.67-7.54-18.57-4.51A24.86,24.86,0,0,0,300,50.05l-1.74,1.61,2.87,2.83a22,22,0,0,1,7.17-4.85c3.1-1.29,6.83-1.62,9.75.19a9.47,9.47,0,0,1,1.07,15.71c-5.5,4.43-13.2.39-17.32-2.68l-3.42-2.62a10.26,10.26,0,0,1-.74-.73c-.29-.29-.48-.43-.78-.69-1.12-1-6.92-6.53-7.21-7.12l31.11-31.31a14.36,14.36,0,0,0-1.85-1.56A48.87,48.87,0,0,0,307,12a46.62,46.62,0,0,0-39.52,2.67,45.9,45.9,0,0,0-9.3,6.92,40.69,40.69,0,0,0-5.1,5.62,46.56,46.56,0,0,0-6.92,42.39A50.83,50.83,0,0,0,255.44,86.12Z"/></g></g></svg>