<svg width="226" height="35" viewBox="0 0 226 35" fill="none" xmlns="http://www.w3.org/2000/svg">
<path d="M2.32422 0.890625L4.375 6.33984L6.4209 0.890625H8.01758V8H6.78711V5.65625L6.90918 2.52148L4.80957 8H3.92578L1.83105 2.52637L1.95312 5.65625V8H0.722656V0.890625H2.32422ZM11.6943 8.09766C10.9424 8.09766 10.332 7.86165 9.86328 7.38965C9.39779 6.91439 9.16504 6.28288 9.16504 5.49512V5.34863C9.16504 4.82129 9.26595 4.35091 9.46777 3.9375C9.67285 3.52083 9.95931 3.19694 10.3271 2.96582C10.695 2.7347 11.1051 2.61914 11.5576 2.61914C12.277 2.61914 12.832 2.84863 13.2227 3.30762C13.6165 3.7666 13.8135 4.41602 13.8135 5.25586V5.73438H10.3613C10.3971 6.17057 10.542 6.51562 10.7959 6.76953C11.0531 7.02344 11.3753 7.15039 11.7627 7.15039C12.3063 7.15039 12.749 6.93066 13.0908 6.49121L13.7305 7.10156C13.5189 7.41732 13.2357 7.66309 12.8809 7.83887C12.5293 8.01139 12.1338 8.09766 11.6943 8.09766ZM11.5527 3.57129C11.2272 3.57129 10.9635 3.68522 10.7617 3.91309C10.5632 4.14095 10.4362 4.45833 10.3809 4.86523H12.6416V4.77734C12.6156 4.38021 12.5098 4.08073 12.3242 3.87891C12.1387 3.67383 11.8815 3.57129 11.5527 3.57129ZM19.3896 5.87598H18.7598V8H17.5732V5.87598H16.9482L15.7324 8H14.2773L16.0303 5.25098L14.3701 2.7168H15.8203L17.0166 4.79199H17.5732V2.7168H18.7598V4.79199H19.3213L20.5225 2.7168H21.9727L20.3174 5.23633L22.0801 8H20.6055L19.3896 5.87598ZM22.8369 7.05273C23.1657 6.6849 23.3854 6.33659 23.4961 6.00781C23.61 5.67578 23.6784 5.2526 23.7012 4.73828L23.7695 2.7168H27.4365V7.05273H28.1689V9.57227H26.9873V8H23.5986V9.57227H22.3975L22.4023 7.05273H22.8369ZM24.2285 7.05273H26.2549V3.7373H24.9219L24.8877 4.74805C24.8421 5.7181 24.6224 6.48633 24.2285 7.05273ZM30.8643 6.30078L31.9385 2.7168H33.2031L31.1035 8.80078C30.7812 9.68945 30.2344 10.1338 29.4629 10.1338C29.2904 10.1338 29.0999 10.1045 28.8916 10.0459V9.12793L29.1162 9.14258C29.4157 9.14258 29.6403 9.08724 29.79 8.97656C29.943 8.86914 30.0635 8.68685 30.1514 8.42969L30.3223 7.97559L28.4668 2.7168H29.7461L30.8643 6.30078ZM38.3643 8H37.1777V5.86621H35.1221V8H33.9355V2.7168H35.1221V4.91895H37.1777V2.7168H38.3643V8ZM42.7881 8C42.736 7.89909 42.6904 7.7347 42.6514 7.50684C42.2738 7.90072 41.8115 8.09766 41.2646 8.09766C40.734 8.09766 40.3011 7.94629 39.9658 7.64355C39.6305 7.34082 39.4629 6.96647 39.4629 6.52051C39.4629 5.95736 39.6712 5.52604 40.0879 5.22656C40.5078 4.92383 41.1068 4.77246 41.8848 4.77246H42.6123V4.42578C42.6123 4.15234 42.5358 3.93424 42.3828 3.77148C42.2298 3.60547 41.9971 3.52246 41.6846 3.52246C41.4144 3.52246 41.193 3.59082 41.0205 3.72754C40.848 3.861 40.7617 4.0319 40.7617 4.24023H39.5752C39.5752 3.95052 39.6712 3.68034 39.8633 3.42969C40.0553 3.17578 40.3158 2.97721 40.6445 2.83398C40.9766 2.69076 41.346 2.61914 41.7529 2.61914C42.3714 2.61914 42.8646 2.77539 43.2324 3.08789C43.6003 3.39714 43.7891 3.83333 43.7988 4.39648V6.7793C43.7988 7.25456 43.8656 7.63379 43.999 7.91699V8H42.7881ZM41.4844 7.14551C41.7188 7.14551 41.9385 7.08854 42.1436 6.97461C42.3519 6.86068 42.5081 6.70768 42.6123 6.51562V5.51953H41.9727C41.5332 5.51953 41.2028 5.59603 40.9814 5.74902C40.7601 5.90202 40.6494 6.11849 40.6494 6.39844C40.6494 6.6263 40.7243 6.80859 40.874 6.94531C41.027 7.07878 41.2305 7.14551 41.4844 7.14551ZM49.668 5.41211C49.668 6.22917 49.4824 6.88184 49.1113 7.37012C48.7402 7.85514 48.2422 8.09766 47.6172 8.09766C47.0378 8.09766 46.5739 7.90723 46.2256 7.52637V10.0312H45.0391V2.7168H46.1328L46.1816 3.25391C46.5299 2.83073 47.0036 2.61914 47.6025 2.61914C48.2471 2.61914 48.7516 2.86003 49.1162 3.3418C49.484 3.82031 49.668 4.486 49.668 5.33887V5.41211ZM48.4863 5.30957C48.4863 4.78223 48.3805 4.36393 48.1689 4.05469C47.9606 3.74544 47.6611 3.59082 47.2705 3.59082C46.7855 3.59082 46.4372 3.79102 46.2256 4.19141V6.53516C46.4404 6.94531 46.792 7.15039 47.2803 7.15039C47.6579 7.15039 47.9525 6.99902 48.1641 6.69629C48.3789 6.3903 48.4863 5.92806 48.4863 5.30957ZM50.4541 5.30957C50.4541 4.79199 50.5566 4.3265 50.7617 3.91309C50.9668 3.49642 51.2549 3.17741 51.626 2.95605C51.9971 2.73145 52.4235 2.61914 52.9053 2.61914C53.6182 2.61914 54.196 2.84863 54.6387 3.30762C55.0846 3.7666 55.3255 4.37533 55.3613 5.13379L55.3662 5.41211C55.3662 5.93294 55.2653 6.39844 55.0635 6.80859C54.8649 7.21875 54.5785 7.53613 54.2041 7.76074C53.833 7.98535 53.4033 8.09766 52.915 8.09766C52.1696 8.09766 51.5723 7.85026 51.123 7.35547C50.6771 6.85742 50.4541 6.19499 50.4541 5.36816V5.30957ZM51.6406 5.41211C51.6406 5.95573 51.7529 6.38216 51.9775 6.69141C52.2021 6.9974 52.5146 7.15039 52.915 7.15039C53.3154 7.15039 53.6263 6.99414 53.8477 6.68164C54.0723 6.36914 54.1846 5.91178 54.1846 5.30957C54.1846 4.77572 54.069 4.35254 53.8379 4.04004C53.61 3.72754 53.2992 3.57129 52.9053 3.57129C52.5179 3.57129 52.2103 3.72591 51.9824 4.03516C51.7546 4.34115 51.6406 4.80013 51.6406 5.41211ZM56.04 7.05273C56.3688 6.6849 56.5885 6.33659 56.6992 6.00781C56.8132 5.67578 56.8815 5.2526 56.9043 4.73828L56.9727 2.7168H60.6396V7.05273H61.3721V9.57227H60.1904V8H56.8018V9.57227H55.6006L55.6055 7.05273H56.04ZM57.4316 7.05273H59.458V3.7373H58.125L58.0908 4.74805C58.0452 5.7181 57.8255 6.48633 57.4316 7.05273ZM66.6064 8H65.4199V5.86621H63.3643V8H62.1777V2.7168H63.3643V4.91895H65.4199V2.7168H66.6064V8ZM69.1504 4.39648H70.3125C70.7454 4.39648 71.123 4.47135 71.4453 4.62109C71.7676 4.77083 72.0117 4.98079 72.1777 5.25098C72.347 5.52116 72.4316 5.83529 72.4316 6.19336C72.4316 6.73698 72.2396 7.17318 71.8555 7.50195C71.4714 7.83073 70.9603 7.99674 70.3223 8H67.9639V2.7168H69.1504V4.39648ZM74.4971 8H73.3105V2.7168H74.4971V8ZM69.1504 5.34863V7.05273H70.3076C70.5973 7.05273 70.8252 6.98112 70.9912 6.83789C71.1605 6.69141 71.2451 6.4847 71.2451 6.21777C71.2451 5.95085 71.1621 5.74089 70.9961 5.58789C70.8333 5.43164 70.612 5.35189 70.332 5.34863H69.1504ZM79.2188 2.7168H80.4004V8H79.2188V4.47461L77.1484 8H75.9668V2.7168H77.1484V6.24219L79.2188 2.7168ZM79.7754 0.69043C79.7754 1.10059 79.6322 1.43262 79.3457 1.68652C79.0592 1.94043 78.6768 2.06738 78.1982 2.06738C77.7197 2.06738 77.3372 1.94043 77.0508 1.68652C76.7643 1.43262 76.6211 1.10059 76.6211 0.69043H77.5098C77.5098 0.905273 77.57 1.07292 77.6904 1.19336C77.8141 1.31055 77.9834 1.36914 78.1982 1.36914C78.4131 1.36914 78.5807 1.31055 78.7012 1.19336C78.8216 1.07292 78.8818 0.905273 78.8818 0.69043H79.7754ZM88.6328 8H87.4463V3.67383H85.3857V8H84.1992V2.7168H88.6328V8ZM89.6729 5.30957C89.6729 4.79199 89.7754 4.3265 89.9805 3.91309C90.1855 3.49642 90.4736 3.17741 90.8447 2.95605C91.2158 2.73145 91.6423 2.61914 92.124 2.61914C92.8369 2.61914 93.4147 2.84863 93.8574 3.30762C94.3034 3.7666 94.5443 4.37533 94.5801 5.13379L94.585 5.41211C94.585 5.93294 94.484 6.39844 94.2822 6.80859C94.0837 7.21875 93.7972 7.53613 93.4229 7.76074C93.0518 7.98535 92.6221 8.09766 92.1338 8.09766C91.3883 8.09766 90.791 7.85026 90.3418 7.35547C89.8958 6.85742 89.6729 6.19499 89.6729 5.36816V5.30957ZM90.8594 5.41211C90.8594 5.95573 90.9717 6.38216 91.1963 6.69141C91.4209 6.9974 91.7334 7.15039 92.1338 7.15039C92.5342 7.15039 92.8451 6.99414 93.0664 6.68164C93.291 6.36914 93.4033 5.91178 93.4033 5.30957C93.4033 4.77572 93.2878 4.35254 93.0566 4.04004C92.8288 3.72754 92.5179 3.57129 92.124 3.57129C91.7367 3.57129 91.429 3.72591 91.2012 4.03516C90.9733 4.34115 90.8594 4.80013 90.8594 5.41211ZM99.5996 3.65918H97.8857V8H96.6992V3.65918H95.0049V2.7168H99.5996V3.65918ZM105.02 5.41211C105.02 6.22917 104.834 6.88184 104.463 7.37012C104.092 7.85514 103.594 8.09766 102.969 8.09766C102.389 8.09766 101.925 7.90723 101.577 7.52637V10.0312H100.391V2.7168H101.484L101.533 3.25391C101.882 2.83073 102.355 2.61914 102.954 2.61914C103.599 2.61914 104.103 2.86003 104.468 3.3418C104.836 3.82031 105.02 4.486 105.02 5.33887V5.41211ZM103.838 5.30957C103.838 4.78223 103.732 4.36393 103.521 4.05469C103.312 3.74544 103.013 3.59082 102.622 3.59082C102.137 3.59082 101.789 3.79102 101.577 4.19141V6.53516C101.792 6.94531 102.144 7.15039 102.632 7.15039C103.009 7.15039 103.304 6.99902 103.516 6.69629C103.73 6.3903 103.838 5.92806 103.838 5.30957ZM108.354 8.09766C107.603 8.09766 106.992 7.86165 106.523 7.38965C106.058 6.91439 105.825 6.28288 105.825 5.49512V5.34863C105.825 4.82129 105.926 4.35091 106.128 3.9375C106.333 3.52083 106.619 3.19694 106.987 2.96582C107.355 2.7347 107.765 2.61914 108.218 2.61914C108.937 2.61914 109.492 2.84863 109.883 3.30762C110.277 3.7666 110.474 4.41602 110.474 5.25586V5.73438H107.021C107.057 6.17057 107.202 6.51562 107.456 6.76953C107.713 7.02344 108.035 7.15039 108.423 7.15039C108.966 7.15039 109.409 6.93066 109.751 6.49121L110.391 7.10156C110.179 7.41732 109.896 7.66309 109.541 7.83887C109.189 8.01139 108.794 8.09766 108.354 8.09766ZM108.213 3.57129C107.887 3.57129 107.624 3.68522 107.422 3.91309C107.223 4.14095 107.096 4.45833 107.041 4.86523H109.302V4.77734C109.276 4.38021 109.17 4.08073 108.984 3.87891C108.799 3.67383 108.542 3.57129 108.213 3.57129ZM113.887 3.00977C114.551 3.00977 115.083 3.23275 115.483 3.67871C115.884 4.12142 116.084 4.72363 116.084 5.48535V5.54395C116.084 6.30566 115.866 6.92253 115.43 7.39453C114.997 7.86654 114.408 8.10254 113.662 8.10254C112.936 8.10254 112.35 7.86165 111.904 7.37988C111.458 6.89811 111.235 6.24056 111.235 5.40723V5.06543C111.235 3.92611 111.437 3.02441 111.841 2.36035C112.244 1.69629 112.847 1.28125 113.647 1.11523C114.097 1.02409 114.386 0.92806 114.517 0.827148C114.65 0.722982 114.717 0.583008 114.717 0.407227H115.674C115.674 0.736003 115.62 1.00293 115.513 1.20801C115.405 1.41309 115.241 1.58073 115.02 1.71094C114.798 1.83789 114.417 1.95833 113.877 2.07227C113.382 2.17643 113.005 2.36198 112.744 2.62891C112.487 2.89583 112.314 3.2653 112.227 3.7373C112.699 3.25228 113.252 3.00977 113.887 3.00977ZM113.652 3.96191C113.268 3.96191 112.967 4.09212 112.749 4.35254C112.531 4.6097 112.422 5.00684 112.422 5.54395C112.422 6.05176 112.529 6.44727 112.744 6.73047C112.959 7.01367 113.265 7.15527 113.662 7.15527C114.056 7.15527 114.36 7.01367 114.575 6.73047C114.793 6.44401 114.902 6.01432 114.902 5.44141C114.902 4.98568 114.793 4.62598 114.575 4.3623C114.36 4.09538 114.053 3.96191 113.652 3.96191ZM120.225 2.7168H121.406V8H120.225V4.47461L118.154 8H116.973V2.7168H118.154V6.24219L120.225 2.7168ZM126.826 3.65918H125.112V8H123.926V3.65918H122.231V2.7168H126.826V3.65918ZM129.634 8.09766C128.882 8.09766 128.271 7.86165 127.803 7.38965C127.337 6.91439 127.104 6.28288 127.104 5.49512V5.34863C127.104 4.82129 127.205 4.35091 127.407 3.9375C127.612 3.52083 127.899 3.19694 128.267 2.96582C128.634 2.7347 129.045 2.61914 129.497 2.61914C130.216 2.61914 130.771 2.84863 131.162 3.30762C131.556 3.7666 131.753 4.41602 131.753 5.25586V5.73438H128.301C128.337 6.17057 128.481 6.51562 128.735 6.76953C128.993 7.02344 129.315 7.15039 129.702 7.15039C130.246 7.15039 130.688 6.93066 131.03 6.49121L131.67 7.10156C131.458 7.41732 131.175 7.66309 130.82 7.83887C130.469 8.01139 130.073 8.09766 129.634 8.09766ZM129.492 3.57129C129.167 3.57129 128.903 3.68522 128.701 3.91309C128.503 4.14095 128.376 4.45833 128.32 4.86523H130.581V4.77734C130.555 4.38021 130.449 4.08073 130.264 3.87891C130.078 3.67383 129.821 3.57129 129.492 3.57129ZM137.168 2.7168V8H135.981V3.67383H134.487L134.39 5.51465C134.328 6.40007 134.157 7.03646 133.877 7.42383C133.6 7.80794 133.175 8 132.603 8H132.236L132.231 7.01367L132.476 6.98926C132.736 6.95345 132.925 6.79557 133.042 6.51562C133.162 6.23242 133.239 5.7181 133.271 4.97266L133.369 2.7168H137.168ZM139.707 4.39648H140.869C141.302 4.39648 141.68 4.47135 142.002 4.62109C142.324 4.77083 142.568 4.98079 142.734 5.25098C142.904 5.52116 142.988 5.83529 142.988 6.19336C142.988 6.73698 142.796 7.17318 142.412 7.50195C142.028 7.83073 141.517 7.99674 140.879 8H138.521V2.7168H139.707V4.39648ZM139.707 5.34863V7.05273H140.864C141.154 7.05273 141.382 6.98112 141.548 6.83789C141.717 6.69141 141.802 6.4847 141.802 6.21777C141.802 5.95085 141.719 5.74089 141.553 5.58789C141.39 5.43164 141.169 5.35189 140.889 5.34863H139.707ZM146.108 7.15039C146.405 7.15039 146.65 7.06413 146.846 6.8916C147.041 6.71908 147.145 6.50586 147.158 6.25195H148.276C148.263 6.58073 148.161 6.88835 147.969 7.1748C147.777 7.45801 147.516 7.68262 147.188 7.84863C146.859 8.01465 146.504 8.09766 146.123 8.09766C145.384 8.09766 144.798 7.8584 144.365 7.37988C143.932 6.90137 143.716 6.24056 143.716 5.39746V5.27539C143.716 4.47135 143.931 3.82845 144.36 3.34668C144.79 2.86165 145.376 2.61914 146.118 2.61914C146.746 2.61914 147.257 2.80306 147.651 3.1709C148.049 3.53548 148.257 4.01562 148.276 4.61133H147.158C147.145 4.30859 147.041 4.05957 146.846 3.86426C146.654 3.66895 146.408 3.57129 146.108 3.57129C145.724 3.57129 145.428 3.71126 145.22 3.99121C145.011 4.2679 144.906 4.68945 144.902 5.25586V5.44629C144.902 6.01921 145.005 6.44727 145.21 6.73047C145.418 7.01042 145.718 7.15039 146.108 7.15039ZM151.05 5.91016H150.449V8H149.263V2.7168H150.449V4.82617H150.972L152.432 2.7168H153.896L151.987 5.24609L154.058 8H152.515L151.05 5.91016ZM158.008 2.7168H159.189V8H158.008V4.47461L155.938 8H154.756V2.7168H155.938V6.24219L158.008 2.7168ZM163.75 2.7168H164.932V8H163.75V4.47461L161.68 8H160.498V2.7168H161.68V6.24219L163.75 2.7168ZM164.307 0.69043C164.307 1.10059 164.163 1.43262 163.877 1.68652C163.59 1.94043 163.208 2.06738 162.729 2.06738C162.251 2.06738 161.868 1.94043 161.582 1.68652C161.296 1.43262 161.152 1.10059 161.152 0.69043H162.041C162.041 0.905273 162.101 1.07292 162.222 1.19336C162.345 1.31055 162.515 1.36914 162.729 1.36914C162.944 1.36914 163.112 1.31055 163.232 1.19336C163.353 1.07292 163.413 0.905273 163.413 0.69043H164.307ZM170.562 5.91016H169.961V8H168.774V2.7168H169.961V4.82617H170.483L171.943 2.7168H173.408L171.499 5.24609L173.569 8H172.026L170.562 5.91016ZM173.716 5.30957C173.716 4.79199 173.818 4.3265 174.023 3.91309C174.229 3.49642 174.517 3.17741 174.888 2.95605C175.259 2.73145 175.685 2.61914 176.167 2.61914C176.88 2.61914 177.458 2.84863 177.9 3.30762C178.346 3.7666 178.587 4.37533 178.623 5.13379L178.628 5.41211C178.628 5.93294 178.527 6.39844 178.325 6.80859C178.127 7.21875 177.84 7.53613 177.466 7.76074C177.095 7.98535 176.665 8.09766 176.177 8.09766C175.431 8.09766 174.834 7.85026 174.385 7.35547C173.939 6.85742 173.716 6.19499 173.716 5.36816V5.30957ZM174.902 5.41211C174.902 5.95573 175.015 6.38216 175.239 6.69141C175.464 6.9974 175.776 7.15039 176.177 7.15039C176.577 7.15039 176.888 6.99414 177.109 6.68164C177.334 6.36914 177.446 5.91178 177.446 5.30957C177.446 4.77572 177.331 4.35254 177.1 4.04004C176.872 3.72754 176.561 3.57129 176.167 3.57129C175.78 3.57129 175.472 3.72591 175.244 4.03516C175.016 4.34115 174.902 4.80013 174.902 5.41211ZM179.409 5.30957C179.409 4.79199 179.512 4.3265 179.717 3.91309C179.922 3.49642 180.21 3.17741 180.581 2.95605C180.952 2.73145 181.379 2.61914 181.86 2.61914C182.573 2.61914 183.151 2.84863 183.594 3.30762C184.04 3.7666 184.281 4.37533 184.316 5.13379L184.321 5.41211C184.321 5.93294 184.22 6.39844 184.019 6.80859C183.82 7.21875 183.534 7.53613 183.159 7.76074C182.788 7.98535 182.358 8.09766 181.87 8.09766C181.125 8.09766 180.527 7.85026 180.078 7.35547C179.632 6.85742 179.409 6.19499 179.409 5.36816V5.30957ZM180.596 5.41211C180.596 5.95573 180.708 6.38216 180.933 6.69141C181.157 6.9974 181.47 7.15039 181.87 7.15039C182.271 7.15039 182.581 6.99414 182.803 6.68164C183.027 6.36914 183.14 5.91178 183.14 5.30957C183.14 4.77572 183.024 4.35254 182.793 4.04004C182.565 3.72754 182.254 3.57129 181.86 3.57129C181.473 3.57129 181.165 3.72591 180.938 4.03516C180.71 4.34115 180.596 4.80013 180.596 5.41211ZM189.805 8H188.618V3.67383H186.558V8H185.371V2.7168H189.805V8ZM193.394 8.09766C192.642 8.09766 192.031 7.86165 191.562 7.38965C191.097 6.91439 190.864 6.28288 190.864 5.49512V5.34863C190.864 4.82129 190.965 4.35091 191.167 3.9375C191.372 3.52083 191.659 3.19694 192.026 2.96582C192.394 2.7347 192.804 2.61914 193.257 2.61914C193.976 2.61914 194.531 2.84863 194.922 3.30762C195.316 3.7666 195.513 4.41602 195.513 5.25586V5.73438H192.061C192.096 6.17057 192.241 6.51562 192.495 6.76953C192.752 7.02344 193.075 7.15039 193.462 7.15039C194.006 7.15039 194.448 6.93066 194.79 6.49121L195.43 7.10156C195.218 7.41732 194.935 7.66309 194.58 7.83887C194.229 8.01139 193.833 8.09766 193.394 8.09766ZM193.252 3.57129C192.926 3.57129 192.663 3.68522 192.461 3.91309C192.262 4.14095 192.135 4.45833 192.08 4.86523H194.341V4.77734C194.315 4.38021 194.209 4.08073 194.023 3.87891C193.838 3.67383 193.581 3.57129 193.252 3.57129ZM201.064 5.41211C201.064 6.22917 200.879 6.88184 200.508 7.37012C200.137 7.85514 199.639 8.09766 199.014 8.09766C198.434 8.09766 197.97 7.90723 197.622 7.52637V10.0312H196.436V2.7168H197.529L197.578 3.25391C197.926 2.83073 198.4 2.61914 198.999 2.61914C199.644 2.61914 200.148 2.86003 200.513 3.3418C200.881 3.82031 201.064 4.486 201.064 5.33887V5.41211ZM199.883 5.30957C199.883 4.78223 199.777 4.36393 199.565 4.05469C199.357 3.74544 199.058 3.59082 198.667 3.59082C198.182 3.59082 197.834 3.79102 197.622 4.19141V6.53516C197.837 6.94531 198.188 7.15039 198.677 7.15039C199.054 7.15039 199.349 6.99902 199.561 6.69629C199.775 6.3903 199.883 5.92806 199.883 5.30957ZM205.229 8C205.177 7.89909 205.132 7.7347 205.093 7.50684C204.715 7.90072 204.253 8.09766 203.706 8.09766C203.175 8.09766 202.743 7.94629 202.407 7.64355C202.072 7.34082 201.904 6.96647 201.904 6.52051C201.904 5.95736 202.113 5.52604 202.529 5.22656C202.949 4.92383 203.548 4.77246 204.326 4.77246H205.054V4.42578C205.054 4.15234 204.977 3.93424 204.824 3.77148C204.671 3.60547 204.438 3.52246 204.126 3.52246C203.856 3.52246 203.634 3.59082 203.462 3.72754C203.289 3.861 203.203 4.0319 203.203 4.24023H202.017C202.017 3.95052 202.113 3.68034 202.305 3.42969C202.497 3.17578 202.757 2.97721 203.086 2.83398C203.418 2.69076 203.787 2.61914 204.194 2.61914C204.813 2.61914 205.306 2.77539 205.674 3.08789C206.042 3.39714 206.23 3.83333 206.24 4.39648V6.7793C206.24 7.25456 206.307 7.63379 206.44 7.91699V8H205.229ZM203.926 7.14551C204.16 7.14551 204.38 7.08854 204.585 6.97461C204.793 6.86068 204.95 6.70768 205.054 6.51562V5.51953H204.414C203.975 5.51953 203.644 5.59603 203.423 5.74902C203.201 5.90202 203.091 6.11849 203.091 6.39844C203.091 6.6263 203.166 6.80859 203.315 6.94531C203.468 7.07878 203.672 7.14551 203.926 7.14551ZM211.562 3.65918H209.849V8H208.662V3.65918H206.968V2.7168H211.562V3.65918ZM215.654 2.7168H216.836V8H215.654V4.47461L213.584 8H212.402V2.7168H213.584V6.24219L215.654 2.7168ZM218.188 8V2.7168H220.332C221.055 2.7168 221.605 2.84375 221.982 3.09766C222.36 3.34831 222.549 3.70964 222.549 4.18164C222.549 4.42578 222.472 4.64551 222.319 4.84082C222.17 5.03288 221.947 5.18099 221.65 5.28516C221.995 5.35677 222.269 5.50163 222.471 5.71973C222.673 5.93783 222.773 6.19499 222.773 6.49121C222.773 6.98275 222.591 7.3571 222.227 7.61426C221.865 7.87142 221.344 8 220.664 8H218.188ZM219.375 5.74902V7.0625H220.674C221.283 7.0625 221.587 6.8444 221.587 6.4082C221.587 5.96875 221.278 5.74902 220.659 5.74902H219.375ZM219.375 4.89941H220.352C221.025 4.89941 221.362 4.70085 221.362 4.30371C221.362 3.88704 221.043 3.6722 220.405 3.65918H219.375V4.89941ZM13.9648 30H11.2578V16.5508H4.37207V30H1.66504V14.3594H13.9648V30ZM23.9443 30C23.8298 29.778 23.7295 29.4163 23.6436 28.915C22.8128 29.7816 21.7959 30.2148 20.5928 30.2148C19.4255 30.2148 18.473 29.8818 17.7354 29.2158C16.9977 28.5498 16.6289 27.7262 16.6289 26.7451C16.6289 25.5062 17.0872 24.5573 18.0039 23.8984C18.9277 23.2324 20.2454 22.8994 21.957 22.8994H23.5576V22.1367C23.5576 21.5352 23.3893 21.0553 23.0527 20.6973C22.7161 20.332 22.2041 20.1494 21.5166 20.1494C20.9222 20.1494 20.4352 20.2998 20.0557 20.6006C19.6761 20.8942 19.4863 21.2702 19.4863 21.7285H16.876C16.876 21.0911 17.0872 20.4967 17.5098 19.9453C17.9323 19.3867 18.5052 18.9499 19.2285 18.6348C19.959 18.3197 20.7718 18.1621 21.667 18.1621C23.0277 18.1621 24.1126 18.5059 24.9219 19.1934C25.7311 19.8737 26.1465 20.8333 26.168 22.0723V27.3145C26.168 28.36 26.3148 29.1943 26.6084 29.8174V30H23.9443ZM21.0762 28.1201C21.5918 28.1201 22.0752 27.9948 22.5264 27.7441C22.9847 27.4935 23.3285 27.1569 23.5576 26.7344V24.543H22.1504C21.1836 24.543 20.4567 24.7113 19.9697 25.0479C19.4827 25.3844 19.2393 25.8607 19.2393 26.4766C19.2393 26.9779 19.404 27.3789 19.7334 27.6797C20.07 27.9733 20.5176 28.1201 21.0762 28.1201ZM39.0801 24.3066C39.0801 26.1042 38.6719 27.54 37.8555 28.6143C37.0391 29.6813 35.9434 30.2148 34.5684 30.2148C33.2936 30.2148 32.2731 29.7959 31.5068 28.958V34.4688H28.8965V18.377H31.3027L31.4102 19.5586C32.1764 18.6276 33.2184 18.1621 34.5361 18.1621C35.9541 18.1621 37.0641 18.6921 37.8662 19.752C38.6755 20.8047 39.0801 22.2692 39.0801 24.1455V24.3066ZM36.4805 24.0811C36.4805 22.9209 36.2477 22.0007 35.7822 21.3203C35.3239 20.64 34.665 20.2998 33.8057 20.2998C32.7386 20.2998 31.9723 20.7402 31.5068 21.6211V26.7773C31.9795 27.6797 32.7529 28.1309 33.8271 28.1309C34.6579 28.1309 35.306 27.7979 35.7715 27.1318C36.2441 26.4587 36.4805 25.4417 36.4805 24.0811ZM48.2432 30C48.1286 29.778 48.0283 29.4163 47.9424 28.915C47.1117 29.7816 46.0947 30.2148 44.8916 30.2148C43.7243 30.2148 42.7718 29.8818 42.0342 29.2158C41.2965 28.5498 40.9277 27.7262 40.9277 26.7451C40.9277 25.5062 41.3861 24.5573 42.3027 23.8984C43.2266 23.2324 44.5443 22.8994 46.2559 22.8994H47.8564V22.1367C47.8564 21.5352 47.6882 21.0553 47.3516 20.6973C47.015 20.332 46.5029 20.1494 45.8154 20.1494C45.221 20.1494 44.734 20.2998 44.3545 20.6006C43.9749 20.8942 43.7852 21.2702 43.7852 21.7285H41.1748C41.1748 21.0911 41.3861 20.4967 41.8086 19.9453C42.2311 19.3867 42.804 18.9499 43.5273 18.6348C44.2578 18.3197 45.0706 18.1621 45.9658 18.1621C47.3265 18.1621 48.4115 18.5059 49.2207 19.1934C50.0299 19.8737 50.4453 20.8333 50.4668 22.0723V27.3145C50.4668 28.36 50.6136 29.1943 50.9072 29.8174V30H48.2432ZM45.375 28.1201C45.8906 28.1201 46.374 27.9948 46.8252 27.7441C47.2835 27.4935 47.6273 27.1569 47.8564 26.7344V24.543H46.4492C45.4824 24.543 44.7555 24.7113 44.2686 25.0479C43.7816 25.3844 43.5381 25.8607 43.5381 26.4766C43.5381 26.9779 43.7028 27.3789 44.0322 27.6797C44.3688 27.9733 44.8164 28.1201 45.375 28.1201ZM60.1025 26.7881L63.54 18.377H66.8057V30H64.1953V22.3086L60.9941 30H59.2217L56.0098 22.2656V30H53.3994V18.377H56.6865L60.1025 26.7881ZM76.6885 30C76.5739 29.778 76.4736 29.4163 76.3877 28.915C75.557 29.7816 74.54 30.2148 73.3369 30.2148C72.1696 30.2148 71.2171 29.8818 70.4795 29.2158C69.7419 28.5498 69.373 27.7262 69.373 26.7451C69.373 25.5062 69.8314 24.5573 70.748 23.8984C71.6719 23.2324 72.9896 22.8994 74.7012 22.8994H76.3018V22.1367C76.3018 21.5352 76.1335 21.0553 75.7969 20.6973C75.4603 20.332 74.9482 20.1494 74.2607 20.1494C73.6663 20.1494 73.1794 20.2998 72.7998 20.6006C72.4202 20.8942 72.2305 21.2702 72.2305 21.7285H69.6201C69.6201 21.0911 69.8314 20.4967 70.2539 19.9453C70.6764 19.3867 71.2493 18.9499 71.9727 18.6348C72.7031 18.3197 73.516 18.1621 74.4111 18.1621C75.7718 18.1621 76.8568 18.5059 77.666 19.1934C78.4753 19.8737 78.8906 20.8333 78.9121 22.0723V27.3145C78.9121 28.36 79.0589 29.1943 79.3525 29.8174V30H76.6885ZM73.8203 28.1201C74.3359 28.1201 74.8193 27.9948 75.2705 27.7441C75.7288 27.4935 76.0726 27.1569 76.3018 26.7344V24.543H74.8945C73.9277 24.543 73.2008 24.7113 72.7139 25.0479C72.2269 25.3844 71.9834 25.8607 71.9834 26.4766C71.9834 26.9779 72.1481 27.3789 72.4775 27.6797C72.8141 27.9733 73.2617 28.1201 73.8203 28.1201ZM88.9023 18.377H91.502V30H88.9023V22.2441L84.3477 30H81.748V18.377H84.3477V26.1328L88.9023 18.377ZM90.127 13.9189C90.127 14.8213 89.8118 15.5518 89.1816 16.1104C88.5514 16.6689 87.71 16.9482 86.6572 16.9482C85.6045 16.9482 84.763 16.6689 84.1328 16.1104C83.5026 15.5518 83.1875 14.8213 83.1875 13.9189H85.1426C85.1426 14.3916 85.2751 14.7604 85.54 15.0254C85.8122 15.2832 86.1846 15.4121 86.6572 15.4121C87.1299 15.4121 87.4987 15.2832 87.7637 15.0254C88.0286 14.7604 88.1611 14.3916 88.1611 13.9189H90.127ZM104.124 30H101.514V25.3057H96.9912V30H94.3809V18.377H96.9912V23.2217H101.514V18.377H104.124V30ZM112.03 30.2148C110.376 30.2148 109.033 29.6956 108.002 28.6572C106.978 27.6117 106.466 26.2223 106.466 24.4893V24.167C106.466 23.0068 106.688 21.972 107.132 21.0625C107.583 20.1458 108.213 19.4333 109.022 18.9248C109.832 18.4163 110.734 18.1621 111.729 18.1621C113.312 18.1621 114.533 18.667 115.393 19.6768C116.259 20.6865 116.692 22.1152 116.692 23.9629V25.0156H109.098C109.176 25.9753 109.495 26.7344 110.054 27.293C110.619 27.8516 111.328 28.1309 112.181 28.1309C113.377 28.1309 114.351 27.6475 115.103 26.6807L116.51 28.0234C116.044 28.7181 115.421 29.2588 114.641 29.6455C113.867 30.0251 112.997 30.2148 112.03 30.2148ZM111.719 20.2568C111.003 20.2568 110.423 20.5075 109.979 21.0088C109.542 21.5101 109.262 22.2083 109.141 23.1035H114.114V22.9102C114.057 22.0365 113.824 21.3776 113.416 20.9336C113.008 20.4824 112.442 20.2568 111.719 20.2568ZM122.858 25.4023H121.537V30H118.927V18.377H121.537V23.0176H122.687L125.898 18.377H129.121L124.921 23.9414L129.476 30H126.081L122.858 25.4023ZM135.513 28.1309C136.164 28.1309 136.705 27.9411 137.135 27.5615C137.564 27.182 137.794 26.7129 137.822 26.1543H140.282C140.254 26.8776 140.028 27.5544 139.605 28.1846C139.183 28.8076 138.61 29.3018 137.887 29.667C137.163 30.0322 136.383 30.2148 135.545 30.2148C133.919 30.2148 132.63 29.6885 131.678 28.6357C130.725 27.583 130.249 26.1292 130.249 24.2744V24.0059C130.249 22.237 130.722 20.8226 131.667 19.7627C132.612 18.6956 133.901 18.1621 135.534 18.1621C136.916 18.1621 138.041 18.5667 138.907 19.376C139.781 20.1781 140.239 21.2344 140.282 22.5449H137.822C137.794 21.8789 137.564 21.3311 137.135 20.9014C136.712 20.4717 136.172 20.2568 135.513 20.2568C134.668 20.2568 134.016 20.5648 133.558 21.1807C133.099 21.7894 132.867 22.7168 132.859 23.9629V24.3818C132.859 25.6423 133.085 26.584 133.536 27.207C133.994 27.8229 134.653 28.1309 135.513 28.1309ZM156.514 15.8418H156.75C157.953 15.8418 159.045 16.1139 160.026 16.6582C161.015 17.1953 161.781 17.9544 162.325 18.9355C162.877 19.9167 163.152 21.0195 163.152 22.2441C163.152 23.4616 162.877 24.5573 162.325 25.5312C161.781 26.498 161.022 27.25 160.048 27.7871C159.081 28.3242 157.996 28.5964 156.793 28.6035H156.514V30.6445H153.903V28.6035H153.646C152.435 28.6035 151.336 28.335 150.348 27.7979C149.359 27.2536 148.593 26.498 148.049 25.5312C147.512 24.5645 147.243 23.4759 147.243 22.2656C147.243 21.041 147.515 19.9382 148.06 18.957C148.604 17.9759 149.367 17.2132 150.348 16.6689C151.329 16.1175 152.428 15.8418 153.646 15.8418H153.903V13.7148H156.514V15.8418ZM153.646 18.0225C152.442 18.0225 151.501 18.3984 150.82 19.1504C150.147 19.9023 149.811 20.9408 149.811 22.2656C149.811 23.5547 150.147 24.5716 150.82 25.3164C151.493 26.054 152.446 26.4229 153.678 26.4229H153.903V18.0225H153.646ZM156.514 18.0225V26.4229H156.771C157.975 26.4229 158.909 26.0469 159.575 25.2949C160.248 24.543 160.585 23.526 160.585 22.2441C160.585 20.9336 160.248 19.9023 159.575 19.1504C158.909 18.3984 157.964 18.0225 156.739 18.0225H156.514ZM172.52 18.377H175.119V30H172.52V22.2441L167.965 30H165.365V18.377H167.965V26.1328L172.52 18.377ZM187.741 30H185.131V25.3057H180.608V30H177.998V18.377H180.608V23.2217H185.131V18.377H187.741V30ZM197.474 30C197.359 29.778 197.259 29.4163 197.173 28.915C196.342 29.7816 195.325 30.2148 194.122 30.2148C192.955 30.2148 192.002 29.8818 191.265 29.2158C190.527 28.5498 190.158 27.7262 190.158 26.7451C190.158 25.5062 190.617 24.5573 191.533 23.8984C192.457 23.2324 193.775 22.8994 195.486 22.8994H197.087V22.1367C197.087 21.5352 196.919 21.0553 196.582 20.6973C196.245 20.332 195.733 20.1494 195.046 20.1494C194.451 20.1494 193.965 20.2998 193.585 20.6006C193.205 20.8942 193.016 21.2702 193.016 21.7285H190.405C190.405 21.0911 190.617 20.4967 191.039 19.9453C191.462 19.3867 192.035 18.9499 192.758 18.6348C193.488 18.3197 194.301 18.1621 195.196 18.1621C196.557 18.1621 197.642 18.5059 198.451 19.1934C199.26 19.8737 199.676 20.8333 199.697 22.0723V27.3145C199.697 28.36 199.844 29.1943 200.138 29.8174V30H197.474ZM194.605 28.1201C195.121 28.1201 195.604 27.9948 196.056 27.7441C196.514 27.4935 196.858 27.1569 197.087 26.7344V24.543H195.68C194.713 24.543 193.986 24.7113 193.499 25.0479C193.012 25.3844 192.769 25.8607 192.769 26.4766C192.769 26.9779 192.933 27.3789 193.263 27.6797C193.599 27.9733 194.047 28.1201 194.605 28.1201ZM212.276 30H209.666V25.3057H205.144V30H202.533V18.377H205.144V23.2217H209.666V18.377H212.276V30ZM219.839 28.1309C220.491 28.1309 221.031 27.9411 221.461 27.5615C221.891 27.182 222.12 26.7129 222.148 26.1543H224.608C224.58 26.8776 224.354 27.5544 223.932 28.1846C223.509 28.8076 222.936 29.3018 222.213 29.667C221.49 30.0322 220.709 30.2148 219.871 30.2148C218.245 30.2148 216.956 29.6885 216.004 28.6357C215.051 27.583 214.575 26.1292 214.575 24.2744V24.0059C214.575 22.237 215.048 20.8226 215.993 19.7627C216.938 18.6956 218.228 18.1621 219.86 18.1621C221.243 18.1621 222.367 18.5667 223.233 19.376C224.107 20.1781 224.565 21.2344 224.608 22.5449H222.148C222.12 21.8789 221.891 21.3311 221.461 20.9014C221.038 20.4717 220.498 20.2568 219.839 20.2568C218.994 20.2568 218.342 20.5648 217.884 21.1807C217.425 21.7894 217.193 22.7168 217.186 23.9629V24.3818C217.186 25.6423 217.411 26.584 217.862 27.207C218.321 27.8229 218.979 28.1309 219.839 28.1309Z" fill="white"/>
</svg>
