<svg width="34" height="36" viewBox="0 0 34 36" fill="none" xmlns="http://www.w3.org/2000/svg">
<path d="M2.78906 1.46875L5.25 8.00781L7.70508 1.46875H9.62109V10H8.14453V7.1875L8.29102 3.42578L5.77148 10H4.71094L2.19727 3.43164L2.34375 7.1875V10H0.867188V1.46875H2.78906ZM20.0489 10H18.5723V2.66406H14.8165V10H13.3399V1.46875H20.0489V10ZM26.2873 6.34375H25.2795V10H23.8029V1.46875H25.2795V5.05469H26.0939L28.6017 1.46875H30.4181L27.4884 5.55273L30.6759 10H28.8947L26.2873 6.34375ZM13.9648 32H11.2578V18.5508H4.37207V32H1.66504V16.3594H13.9648V32ZM25.7812 17.8418H26.0176C27.2207 17.8418 28.3128 18.1139 29.2939 18.6582C30.2822 19.1953 31.0485 19.9544 31.5928 20.9355C32.1442 21.9167 32.4199 23.0195 32.4199 24.2441C32.4199 25.4616 32.1442 26.5573 31.5928 27.5312C31.0485 28.498 30.2894 29.25 29.3154 29.7871C28.3486 30.3242 27.2637 30.5964 26.0605 30.6035H25.7812V32.6445H23.1709V30.6035H22.9131C21.7028 30.6035 20.6035 30.335 19.6152 29.7979C18.627 29.2536 17.8607 28.498 17.3164 27.5312C16.7793 26.5645 16.5107 25.4759 16.5107 24.2656C16.5107 23.041 16.7829 21.9382 17.3271 20.957C17.8714 19.9759 18.6341 19.2132 19.6152 18.6689C20.5964 18.1175 21.6956 17.8418 22.9131 17.8418H23.1709V15.7148H25.7812V17.8418ZM22.9131 20.0225C21.71 20.0225 20.7682 20.3984 20.0879 21.1504C19.4147 21.9023 19.0781 22.9408 19.0781 24.2656C19.0781 25.5547 19.4147 26.5716 20.0879 27.3164C20.7611 28.054 21.7135 28.4229 22.9453 28.4229H23.1709V20.0225H22.9131ZM25.7812 20.0225V28.4229H26.0391C27.2422 28.4229 28.1768 28.0469 28.8428 27.2949C29.516 26.543 29.8525 25.526 29.8525 24.2441C29.8525 22.9336 29.516 21.9023 28.8428 21.1504C28.1768 20.3984 27.2314 20.0225 26.0068 20.0225H25.7812Z" fill="white"/>
</svg>
