<?xml version="1.0" encoding="UTF-8" standalone="yes"?>
<!-- Created with sK1/UniConvertor (http://sk1project.org/) -->
<svg xmlns="http://www.w3.org/2000/svg" xmlns:xlink="http://www.w3.org/1999/xlink"
  width="266.457pt" height="153.071pt" viewBox="0 0 266.457 153.071"
  fill-rule="evenodd">
<g>
<path style="stroke:none; fill:#005f90" d="M 1925.55 -955.375C 1955.9 -955.375 1980.55 -930.733 1980.55 -900.375C 1980.55 -870.017 1955.9 -845.376 1925.55 -845.376C 1895.19 -845.376 1870.55 -870.017 1870.55 -900.375C 1870.55 -930.733 1895.19 -955.375 1925.55 -955.375z"/>
<path style="stroke:none; fill:#009fe0" d="M 1925.55 -955.375C 1939.67 -955.375 1952.56 -950.046 1962.3 -941.291L 1956.2 -934.981L 1925.09 -903.678L 1929.12 -899.123L 1889.16 -859.14C 1877.74 -869.218 1870.55 -883.955 1870.55 -900.375C 1870.55 -930.751 1895.17 -955.375 1925.55 -955.375z"/>
<g>
<path style="stroke:none; fill:#005f90" d="M 1644.32 -834.328L 1644.32 -800.387L 1635.43 -800.387L 1635.43 -841.047L 1668.01 -841.047L 1668.01 -800.387L 1659.12 -800.387L 1659.12 -834.328L 1644.32 -834.328zM 1677.78 -819.863L 1674.59 -825.102C 1678.5 -827.684 1682.53 -828.974 1686.67 -828.974C 1691.26 -828.974 1694.28 -827.911 1695.72 -825.785C 1697.16 -823.659 1697.89 -821.4 1697.89 -819.008L 1697.89 -810.637C 1697.89 -809.308 1698.06 -808.255 1698.4 -807.477C 1698.74 -806.698 1699.56 -806.328 1700.85 -806.366L 1700.85 -800.273C 1699.9 -799.931 1699.01 -799.76 1698.17 -799.76C 1695.36 -799.76 1693.35 -800.785 1692.13 -802.835C 1689.63 -800.823 1686.57 -799.798 1682.97 -799.76C 1679.7 -799.722 1677.32 -800.51 1675.82 -802.123C 1674.32 -803.737 1673.57 -805.645 1673.57 -807.847C 1673.57 -810.846 1674.82 -813.333 1677.33 -815.307C 1679.83 -817.281 1684.05 -818.268 1689.97 -818.268C 1690.01 -818.42 1690.03 -818.648 1690.03 -818.952C 1690.03 -819.483 1690.01 -819.901 1689.97 -820.204C 1689.67 -821.875 1688.28 -822.691 1685.81 -822.653C 1683.31 -822.653 1680.63 -821.723 1677.78 -819.863zM 1689.97 -812.687C 1687.58 -812.801 1685.6 -812.479 1684.05 -811.719C 1682.49 -810.96 1681.73 -809.878 1681.77 -808.473C 1681.85 -807.638 1682.18 -807.021 1682.77 -806.622C 1683.35 -806.224 1684.16 -806.081 1685.19 -806.195C 1686.67 -806.347 1688.26 -807.068 1689.97 -808.359L 1689.97 -812.687zM 1713.24 -802.949L 1713.24 -788.257L 1705.5 -788.257L 1705.5 -828.291L 1713.24 -828.291L 1713.24 -824.817C 1715.14 -827.589 1717.97 -828.974 1721.73 -828.974C 1723.7 -828.974 1726.08 -828.035 1728.88 -826.156C 1731.67 -824.276 1733.04 -820.261 1733 -814.111C 1732.93 -810.163 1731.98 -806.822 1730.16 -804.088C 1728.33 -801.355 1725.58 -799.912 1721.9 -799.76C 1718.29 -799.608 1715.41 -800.671 1713.24 -802.949zM 1713.07 -814.054C 1713.07 -811.283 1713.64 -809.308 1714.78 -808.131C 1715.92 -806.954 1717.13 -806.366 1718.43 -806.366C 1719.72 -806.366 1720.92 -806.954 1722.04 -808.131C 1723.16 -809.308 1723.72 -811.283 1723.72 -814.054C 1723.72 -815.99 1723.43 -817.537 1722.84 -818.695C 1722.25 -819.853 1721.55 -820.66 1720.73 -821.115C 1719.92 -821.571 1719.15 -821.799 1718.43 -821.799C 1717.13 -821.799 1715.92 -821.21 1714.78 -820.034C 1713.64 -818.857 1713.07 -816.864 1713.07 -814.054zM 1740.1 -819.863L 1736.91 -825.102C 1740.83 -827.684 1744.85 -828.974 1748.99 -828.974C 1753.58 -828.974 1756.6 -827.911 1758.04 -825.785C 1759.48 -823.659 1760.21 -821.4 1760.21 -819.008L 1760.21 -810.637C 1760.21 -809.308 1760.38 -808.255 1760.72 -807.477C 1761.06 -806.698 1761.88 -806.328 1763.17 -806.366L 1763.17 -800.273C 1762.22 -799.931 1761.33 -799.76 1760.49 -799.76C 1757.68 -799.76 1755.67 -800.785 1754.45 -802.835C 1751.95 -800.823 1748.89 -799.798 1745.29 -799.76C 1742.02 -799.722 1739.64 -800.51 1738.14 -802.123C 1736.64 -803.737 1735.89 -805.645 1735.89 -807.847C 1735.89 -810.846 1737.14 -813.333 1739.65 -815.307C 1742.15 -817.281 1746.37 -818.268 1752.29 -818.268C 1752.33 -818.42 1752.35 -818.648 1752.35 -818.952C 1752.35 -819.483 1752.33 -819.901 1752.29 -820.204C 1751.99 -821.875 1750.6 -822.691 1748.13 -822.653C 1745.63 -822.653 1742.95 -821.723 1740.1 -819.863zM 1752.29 -812.687C 1749.9 -812.801 1747.92 -812.479 1746.37 -811.719C 1744.81 -810.96 1744.05 -809.878 1744.09 -808.473C 1744.17 -807.638 1744.5 -807.021 1745.09 -806.622C 1745.68 -806.224 1746.48 -806.081 1747.51 -806.195C 1748.99 -806.347 1750.58 -807.068 1752.29 -808.359L 1752.29 -812.687zM 1775.68 -818.04L 1775.68 -800.387L 1767.82 -800.387L 1767.82 -828.291L 1777.44 -828.291L 1783.59 -814.396L 1789.8 -828.291L 1799.37 -828.291L 1799.37 -800.387L 1791.51 -800.387L 1791.51 -818.04L 1786.04 -804.373L 1781.14 -804.373L 1775.68 -818.04zM 1808.86 -819.863L 1805.67 -825.102C 1809.58 -827.684 1813.6 -828.974 1817.74 -828.974C 1822.34 -828.974 1825.36 -827.911 1826.8 -825.785C 1828.24 -823.659 1828.96 -821.4 1828.96 -819.008L 1828.96 -810.637C 1828.96 -809.308 1829.13 -808.255 1829.47 -807.477C 1829.82 -806.698 1830.63 -806.328 1831.92 -806.366L 1831.92 -800.273C 1830.97 -799.931 1830.08 -799.76 1829.25 -799.76C 1826.44 -799.76 1824.42 -800.785 1823.21 -802.835C 1820.7 -800.823 1817.65 -799.798 1814.04 -799.76C 1810.78 -799.722 1808.39 -800.51 1806.89 -802.123C 1805.39 -803.737 1804.64 -805.645 1804.64 -807.847C 1804.64 -810.846 1805.9 -813.333 1808.4 -815.307C 1810.91 -817.281 1815.12 -818.268 1821.05 -818.268C 1821.08 -818.42 1821.1 -818.648 1821.1 -818.952C 1821.1 -819.483 1821.08 -819.901 1821.05 -820.204C 1820.74 -821.875 1819.36 -822.691 1816.89 -822.653C 1814.38 -822.653 1811.71 -821.723 1808.86 -819.863zM 1821.05 -812.687C 1818.65 -812.801 1816.68 -812.479 1815.12 -811.719C 1813.57 -810.96 1812.81 -809.878 1812.85 -808.473C 1812.92 -807.638 1813.25 -807.021 1813.84 -806.622C 1814.43 -806.224 1815.24 -806.081 1816.26 -806.195C 1817.74 -806.347 1819.34 -807.068 1821.05 -808.359L 1821.05 -812.687zM 1849.16 -831.195C 1845.93 -831.309 1843.5 -832.467 1841.87 -834.669C 1840.24 -836.871 1839.33 -839.415 1839.14 -842.3L 1844.26 -842.3C 1844.34 -841.009 1844.74 -839.756 1845.46 -838.542C 1846.18 -837.327 1847.41 -836.7 1849.16 -836.662C 1850.91 -836.7 1852.15 -837.336 1852.89 -838.57C 1853.63 -839.804 1854 -841.047 1854 -842.3L 1859.07 -842.3C 1858.92 -839.453 1858.03 -836.919 1856.42 -834.698C 1854.81 -832.477 1852.39 -831.309 1849.16 -831.195zM 1844.43 -813.712L 1853.77 -823.963L 1853.77 -828.291L 1861.69 -828.291L 1861.69 -800.387L 1853.77 -800.387L 1853.77 -814.624L 1844.43 -804.373L 1844.43 -800.387L 1836.57 -800.387L 1836.57 -828.291L 1844.43 -828.291L 1844.43 -813.712zM 1877.22 -811.378L 1877.22 -800.387L 1869.36 -800.387L 1869.36 -828.291L 1877.22 -828.291L 1877.22 -817.87L 1888.21 -817.87L 1888.21 -828.291L 1896.07 -828.291L 1896.07 -800.387L 1888.21 -800.387L 1888.21 -811.378L 1877.22 -811.378zM 1923.72 -809.327L 1927.71 -805.227C 1925.96 -803.329 1924.12 -801.943 1922.19 -801.07C 1920.25 -800.197 1918.07 -799.76 1915.64 -799.76C 1911.46 -799.798 1908.05 -801.193 1905.42 -803.946C 1902.78 -806.698 1901.42 -810.22 1901.34 -814.51C 1901.34 -819.141 1902.69 -822.71 1905.39 -825.216C 1908.08 -827.722 1911.23 -828.974 1914.84 -828.974C 1918.07 -828.974 1921.06 -827.845 1923.81 -825.586C 1926.56 -823.327 1927.86 -819.028 1927.71 -812.687L 1910.11 -812.687C 1910.08 -811.586 1910.33 -810.542 1910.88 -809.555C 1911.43 -808.568 1912.19 -807.799 1913.16 -807.249C 1914.13 -806.698 1915.24 -806.423 1916.49 -806.423C 1918.5 -806.385 1920.91 -807.353 1923.72 -809.327zM 1919.62 -817.87C 1919.66 -819.502 1919.24 -820.802 1918.37 -821.771C 1917.5 -822.739 1916.42 -823.223 1915.12 -823.223C 1913.87 -823.298 1912.76 -822.9 1911.79 -822.027C 1910.82 -821.154 1910.32 -819.768 1910.28 -817.87L 1919.62 -817.87zM 1933.27 -800.387L 1933.27 -828.291L 1941.13 -828.291L 1941.13 -818.496C 1942.38 -818.306 1943.41 -818.743 1944.21 -819.806C 1944.66 -820.261 1945.23 -821.059 1945.91 -822.198C 1947.36 -824.513 1948.71 -826.212 1949.96 -827.294C 1951.21 -828.376 1952.81 -828.936 1954.74 -828.974C 1955.77 -828.974 1956.72 -828.785 1957.59 -828.405L 1957.59 -822.027C 1956.37 -822.178 1955.37 -821.818 1954.57 -820.945C 1954.08 -820.489 1953.49 -819.73 1952.81 -818.667C 1951.51 -816.921 1950.15 -815.858 1948.71 -815.478C 1950.83 -815.022 1952.92 -812.801 1954.97 -808.815C 1955.35 -807.98 1955.73 -807.391 1956.11 -807.049C 1956.6 -806.556 1957.36 -806.328 1958.39 -806.366L 1958.39 -800.273C 1957.13 -799.931 1956.17 -799.76 1955.48 -799.76C 1952.6 -799.76 1950.24 -801.184 1948.42 -804.031C 1948.15 -804.525 1947.88 -805.066 1947.59 -805.654C 1947.31 -806.243 1947.07 -806.708 1946.88 -807.049C 1946.69 -807.505 1946.5 -807.942 1946.31 -808.359C 1946.12 -808.777 1945.91 -809.194 1945.69 -809.612C 1945.42 -810.182 1945.19 -810.618 1945 -810.922C 1944.21 -812.061 1942.92 -812.535 1941.13 -812.346L 1941.13 -800.387L 1933.27 -800.387zM 1983.6 -809.612L 1988.89 -804.999C 1986.01 -801.469 1981.98 -799.722 1976.82 -799.76C 1973.48 -799.76 1970.67 -800.463 1968.39 -801.867C 1966.11 -803.272 1964.47 -805.104 1963.46 -807.363C 1962.46 -809.622 1962.01 -812.023 1962.13 -814.567C 1962.28 -818.249 1963.55 -821.562 1965.94 -824.504C 1968.33 -827.446 1972.07 -828.936 1977.16 -828.974C 1981.34 -828.974 1984.83 -827.722 1987.64 -825.216L 1983.6 -819.977C 1981.66 -821.685 1979.55 -822.444 1977.27 -822.254C 1975.68 -822.027 1974.28 -821.296 1973.06 -820.062C 1971.85 -818.828 1971.22 -816.958 1971.18 -814.453C 1971.18 -811.871 1971.7 -809.944 1972.75 -808.673C 1973.79 -807.401 1975.15 -806.67 1976.82 -806.48C 1979.44 -806.214 1981.7 -807.258 1983.6 -809.612z"/>
<path style="stroke:none; fill:#009fe0" d="M 2030.1 -800.387L 2030.1 -806.366C 2029.88 -806.366 2029.68 -806.376 2029.51 -806.395C 2029.33 -806.414 2029.1 -806.423 2028.79 -806.423C 2025.3 -806.499 2022.76 -806.841 2021.16 -807.448C 2018.47 -808.473 2016.26 -810.352 2014.56 -813.086C 2012.85 -815.82 2011.99 -819.084 2011.99 -822.881C 2011.99 -825.273 2012.45 -827.722 2013.36 -830.227C 2014.27 -832.733 2016.08 -834.897 2018.77 -836.719C 2021.47 -838.542 2025.24 -839.358 2030.1 -839.168L 2030.1 -843.952L 2038.87 -843.952L 2038.87 -839.168C 2043.88 -839.358 2047.77 -838.542 2050.52 -836.719C 2053.27 -834.897 2055.1 -832.733 2056.01 -830.227C 2056.93 -827.722 2057.38 -825.273 2057.38 -822.881C 2057.38 -819.122 2056.52 -815.858 2054.79 -813.086C 2053.06 -810.314 2050.79 -808.435 2047.98 -807.448C 2046.35 -806.841 2043.75 -806.499 2040.18 -806.423C 2039.88 -806.423 2039.64 -806.414 2039.47 -806.395C 2039.3 -806.376 2039.1 -806.366 2038.87 -806.366L 2038.87 -800.387L 2030.1 -800.387zM 2030.1 -832.505C 2023.91 -833.075 2020.82 -829.848 2020.82 -822.824C 2020.82 -819.028 2021.55 -816.379 2023.01 -814.88C 2024.47 -813.38 2026.84 -812.744 2030.1 -812.972L 2030.1 -832.505zM 2038.87 -832.562L 2038.87 -812.972C 2042.25 -812.744 2044.72 -813.38 2046.28 -814.88C 2047.83 -816.379 2048.61 -819.028 2048.61 -822.824C 2048.61 -829.696 2045.37 -832.942 2038.87 -832.562zM 2070.86 -813.712L 2080.2 -823.963L 2080.2 -828.291L 2088.11 -828.291L 2088.11 -800.387L 2080.2 -800.387L 2080.2 -814.624L 2070.86 -804.373L 2070.86 -800.387L 2063 -800.387L 2063 -828.291L 2070.86 -828.291L 2070.86 -813.712zM 2103.64 -811.378L 2103.64 -800.387L 2095.78 -800.387L 2095.78 -828.291L 2103.64 -828.291L 2103.64 -817.87L 2114.63 -817.87L 2114.63 -828.291L 2122.49 -828.291L 2122.49 -800.387L 2114.63 -800.387L 2114.63 -811.378L 2103.64 -811.378zM 2131.98 -819.863L 2128.79 -825.102C 2132.7 -827.684 2136.73 -828.974 2140.87 -828.974C 2145.46 -828.974 2148.48 -827.911 2149.92 -825.785C 2151.36 -823.659 2152.09 -821.4 2152.09 -819.008L 2152.09 -810.637C 2152.09 -809.308 2152.26 -808.255 2152.6 -807.477C 2152.94 -806.698 2153.76 -806.328 2155.05 -806.366L 2155.05 -800.273C 2154.1 -799.931 2153.21 -799.76 2152.37 -799.76C 2149.56 -799.76 2147.55 -800.785 2146.33 -802.835C 2143.83 -800.823 2140.77 -799.798 2137.17 -799.76C 2133.9 -799.722 2131.52 -800.51 2130.02 -802.123C 2128.52 -803.737 2127.77 -805.645 2127.77 -807.847C 2127.77 -810.846 2129.02 -813.333 2131.53 -815.307C 2134.03 -817.281 2138.25 -818.268 2144.17 -818.268C 2144.21 -818.42 2144.23 -818.648 2144.23 -818.952C 2144.23 -819.483 2144.21 -819.901 2144.17 -820.204C 2143.87 -821.875 2142.48 -822.691 2140.01 -822.653C 2137.51 -822.653 2134.83 -821.723 2131.98 -819.863zM 2144.17 -812.687C 2141.78 -812.801 2139.8 -812.479 2138.25 -811.719C 2136.69 -810.96 2135.93 -809.878 2135.97 -808.473C 2136.05 -807.638 2136.38 -807.021 2136.97 -806.622C 2137.55 -806.224 2138.36 -806.081 2139.39 -806.195C 2140.87 -806.347 2142.46 -807.068 2144.17 -808.359L 2144.17 -812.687zM 2167.56 -811.378L 2167.56 -800.387L 2159.7 -800.387L 2159.7 -828.291L 2167.56 -828.291L 2167.56 -817.87L 2178.55 -817.87L 2178.55 -828.291L 2186.41 -828.291L 2186.41 -800.387L 2178.55 -800.387L 2178.55 -811.378L 2167.56 -811.378zM 2213.27 -809.612L 2218.56 -804.999C 2215.68 -801.469 2211.65 -799.722 2206.49 -799.76C 2203.15 -799.76 2200.34 -800.463 2198.06 -801.867C 2195.78 -803.272 2194.14 -805.104 2193.14 -807.363C 2192.13 -809.622 2191.68 -812.023 2191.8 -814.567C 2191.95 -818.249 2193.22 -821.562 2195.61 -824.504C 2198.01 -827.446 2201.75 -828.936 2206.83 -828.974C 2211.01 -828.974 2214.5 -827.722 2217.31 -825.216L 2213.27 -819.977C 2211.33 -821.685 2209.22 -822.444 2206.95 -822.254C 2205.35 -822.027 2203.95 -821.296 2202.73 -820.062C 2201.52 -818.828 2200.89 -816.958 2200.85 -814.453C 2200.85 -811.871 2201.38 -809.944 2202.42 -808.673C 2203.46 -807.401 2204.82 -806.67 2206.49 -806.48C 2209.11 -806.214 2211.37 -807.258 2213.27 -809.612z"/>
</g>
<path style="stroke:none; fill:#c5c6c8" d="M 1890.87 -869.258L 1893.95 -872.354L 1891.36 -875.594C 1888.94 -879.033 1887.06 -882.386 1885.63 -886.477C 1880.3 -901.782 1884.2 -917.875 1894.84 -929.43C 1896.39 -931.108 1898.01 -932.42 1899.78 -933.874C 1905.1 -938.245 1912.58 -941.305 1919.81 -942.247C 1928.22 -943.343 1936.44 -942.051 1943.83 -938.48C 1945.76 -937.546 1948.46 -936.102 1949.8 -934.925L 1921.88 -906.962C 1921.57 -907.137 1920.48 -908.104 1920.16 -908.401C 1919.56 -908.959 1918.98 -909.416 1918.34 -909.924C 1914.6 -912.904 1910.21 -915.777 1905.14 -916.693C 1897.82 -918.016 1891.05 -913.872 1889.23 -906.656C 1887.84 -901.178 1890.09 -895.612 1894.25 -892.67C 1900.61 -888.167 1908 -889.829 1913.84 -894.093C 1914.82 -894.805 1915.77 -895.42 1916.62 -896.274L 1917.43 -897.09L 1914.67 -899.851L 1913.06 -898.494C 1909.14 -895.051 1902.57 -892.323 1897.69 -895.174C 1895.32 -896.557 1893.4 -898.717 1892.89 -902.428C 1892.66 -904.162 1893.11 -906.159 1893.74 -907.498C 1894.41 -908.916 1895.48 -910.054 1896.49 -910.906C 1903 -916.371 1912.34 -909.702 1917.25 -905.622C 1919.47 -903.782 1921.36 -901.726 1923.38 -899.695C 1924.25 -898.828 1925.54 -897.354 1926.4 -896.675C 1924.89 -895.409 1912.25 -882.521 1910.79 -881.071C 1910.18 -880.461 1895.66 -866.195 1895.22 -865.353C 1896.21 -864.707 1897.18 -863.822 1898.24 -863.045C 1901.41 -860.716 1904.73 -858.87 1908.61 -857.342C 1914.15 -855.163 1920.26 -854.003 1927 -854.171C 1933.71 -854.338 1939.15 -855.949 1944.52 -858.209C 1950.39 -860.676 1956.5 -865.267 1960.06 -869.604C 1963.02 -873.211 1963.98 -874.473 1966.64 -879.098C 1968.92 -883.069 1971.12 -890.306 1971.6 -895.696C 1972.21 -902.694 1971.47 -908.765 1969.5 -914.851C 1967.91 -919.779 1965.86 -923.218 1963.19 -927.302L 1962.02 -928.956L 1959.29 -926.903L 1958.82 -926.487L 1959.81 -925.126L 1962.57 -920.777C 1963.6 -918.992 1964.8 -916.355 1965.49 -914.197C 1967.25 -908.736 1968.08 -903.901 1967.72 -897.549C 1967.09 -886.551 1961.68 -876.77 1956.17 -871.348C 1952.36 -867.599 1950.68 -865.97 1945.48 -863.143C 1934.12 -856.96 1918.95 -856.437 1907.28 -862.298C 1905 -863.439 1903.33 -864.556 1901.28 -865.79C 1901.69 -866.519 1924.44 -889.055 1927.43 -892.032C 1927.96 -892.558 1928.72 -893.456 1929.28 -893.813L 1932.84 -890.797C 1936.47 -887.952 1940.92 -884.985 1945.83 -884.102C 1958.38 -881.848 1966.38 -894.972 1960.09 -904.641C 1955.89 -911.103 1948.42 -912.186 1941.53 -909.157C 1939.22 -908.146 1937.26 -906.857 1935.44 -905.325L 1933.7 -903.715L 1936.57 -900.884C 1938.68 -902.949 1940.89 -904.557 1943.74 -905.738C 1946.84 -907.024 1950.57 -907.357 1953.49 -905.545C 1959.41 -901.88 1959.85 -894.087 1954.56 -889.831C 1949.06 -885.406 1941.36 -889.447 1937.24 -892.518L 1933.83 -895.138C 1933.55 -895.364 1933.31 -895.631 1933.08 -895.862C 1932.79 -896.151 1932.6 -896.292 1932.31 -896.553C 1931.19 -897.531 1925.38 -903.082 1925.09 -903.678L 1956.2 -934.981C 1955.83 -935.438 1954.87 -936.158 1954.35 -936.547C 1950.65 -939.322 1946.9 -941.718 1942.47 -943.427C 1929.54 -948.414 1914.97 -947.506 1902.95 -940.751C 1899.09 -938.582 1896.86 -936.738 1893.65 -933.839C 1891.84 -932.202 1890.04 -930.18 1888.55 -928.217C 1879.64 -916.427 1876.77 -900.121 1881.63 -885.826C 1883.64 -879.905 1886.73 -874.103 1890.87 -869.258z"/>
</g>
</svg>