<svg width="16" height="23" viewBox="0 0 16 23" fill="none" xmlns="http://www.w3.org/2000/svg">
<path d="M8 0.0952454C3.57714 0.0952454 0 3.55315 0 7.82858C0 13.6286 8 22.1905 8 22.1905C8 22.1905 16 13.6286 16 7.82858C16 3.55315 12.4229 0.0952454 8 0.0952454ZM8 10.5905C7.24224 10.5905 6.51551 10.2995 5.9797 9.78154C5.44388 9.26358 5.14286 8.56108 5.14286 7.82858C5.14286 7.09608 5.44388 6.39357 5.9797 5.87562C6.51551 5.35766 7.24224 5.06667 8 5.06667C8.75776 5.06667 9.48449 5.35766 10.0203 5.87562C10.5561 6.39357 10.8571 7.09608 10.8571 7.82858C10.8571 8.56108 10.5561 9.26358 10.0203 9.78154C9.48449 10.2995 8.75776 10.5905 8 10.5905Z" fill="#94A8B4"/>
</svg>
