<svg width="24" height="25" viewBox="0 0 24 25" fill="none" xmlns="http://www.w3.org/2000/svg">
<path d="M3.37726 0C1.50646 0 0 1.56895 0 3.51736V21.4783C0 23.4267 1.50646 24.9956 3.37726 24.9956H20.6228C22.4936 24.9956 24 23.4267 24 21.4783V3.51736C24 1.56895 22.4936 0 20.6228 0H3.37726ZM12.5378 2.55425C15.2614 2.55425 17.4758 4.86144 17.4758 7.69787C17.4758 10.5341 15.2614 12.8399 12.5378 12.8399C9.81408 12.8399 7.59826 10.5341 7.59826 7.69787C7.59826 4.86144 9.81406 2.55425 12.5378 2.55425ZM12.4853 5.5678C11.382 5.59704 10.4925 6.54222 10.4925 7.6979C10.4925 8.87142 11.4103 9.82642 12.5378 9.82642C13.665 9.82642 14.5815 8.87142 14.5815 7.6979C14.5815 6.5239 13.665 5.5678 12.5378 5.5678C12.5202 5.5678 12.5028 5.56732 12.4853 5.5678ZM8.44874 13.0149C8.71034 13.0159 8.97427 13.0908 9.21226 13.2469C11.2337 14.5707 13.8396 14.5716 15.8618 13.2469C16.5388 12.8029 17.4312 13.016 17.8575 13.7211C18.2834 14.4249 18.0788 15.3555 17.4023 15.7988C16.5202 16.3762 15.5508 16.7943 14.535 17.0353L17.2965 19.9114C17.8618 20.4989 17.8618 21.4539 17.2965 22.0423C16.7309 22.6309 15.8159 22.6309 15.2513 22.0423L12.5363 19.2162L9.82426 22.0423C9.54185 22.3365 9.17129 22.4836 8.80126 22.4836C8.43084 22.4836 8.06153 22.3361 7.77826 22.0423C7.21303 21.4535 7.2132 20.5002 7.77826 19.9114L10.5383 17.0353C9.53318 16.7967 8.56339 16.3824 7.67026 15.7988C6.99504 15.3555 6.792 14.4259 7.218 13.7211C7.48349 13.2804 7.932 13.0315 8.39626 13.0157C8.41375 13.0151 8.43126 13.0149 8.44877 13.0149H8.44874Z" fill="#94A8B4"/>
</svg>
