<svg width="28" height="28" viewBox="0 0 28 28" fill="none" xmlns="http://www.w3.org/2000/svg">
<path d="M12.8025 18.6795C11.0164 18.4928 9.40521 18.0495 8.02621 16.9633C7.85471 16.828 7.67738 16.6973 7.52221 16.5468C6.91788 15.9635 6.85721 15.2938 7.33554 14.6055C7.74388 14.0151 8.42988 13.8576 9.14271 14.1971C9.28038 14.2613 9.41104 14.3441 9.53821 14.4316C12.1084 16.2096 15.6399 16.2586 18.2194 14.5121C18.476 14.3138 18.749 14.1528 19.0652 14.0711C19.6812 13.9125 20.2552 14.14 20.5854 14.6825C20.9634 15.3008 20.9587 15.9075 20.4932 16.387C19.7804 17.1255 18.9217 17.6586 17.9685 18.0308C17.0667 18.3831 16.0785 18.5605 15.102 18.6771C15.249 18.8393 15.319 18.9186 15.4112 19.012C16.7377 20.3536 18.0712 21.6918 19.3942 23.0381C19.8445 23.4978 19.939 24.066 19.6905 24.6003C19.4187 25.1836 18.812 25.5675 18.2159 25.5266C17.839 25.4998 17.545 25.3108 17.2825 25.046C16.2815 24.031 15.2619 23.0346 14.2807 22.001C13.9949 21.7 13.8572 21.7571 13.6052 22.0185C12.5984 23.0626 11.5752 24.0905 10.5439 25.1136C10.0819 25.5721 9.53121 25.655 8.99454 25.3936C8.42521 25.1136 8.06121 24.5291 8.09038 23.94C8.10904 23.541 8.30388 23.2376 8.57571 22.9646C9.88938 21.644 11.1984 20.3198 12.5085 18.998C12.5949 18.9093 12.6765 18.816 12.8025 18.6795Z" fill="#94A8B4"/>
<path d="M13.8917 14.0805C10.7043 14.0688 8.09099 11.4088 8.10849 8.1935C8.12715 4.94316 10.7428 2.32517 13.9617 2.33333C17.1863 2.3415 19.7752 4.99917 19.76 8.28333C19.7425 11.4917 17.1117 14.091 13.8917 14.0805ZM16.7885 8.2005C16.7906 7.82478 16.7185 7.45234 16.5763 7.10459C16.434 6.75684 16.2244 6.44064 15.9596 6.17415C15.6947 5.90766 15.3798 5.69615 15.0329 5.55176C14.686 5.40738 14.314 5.33298 13.9383 5.33283C13.5591 5.33247 13.1835 5.40767 12.8337 5.55406C12.4838 5.70044 12.1666 5.91507 11.9006 6.18541C11.6346 6.45575 11.4252 6.77638 11.2845 7.12857C11.1438 7.48077 11.0746 7.85746 11.0812 8.23666C11.0816 8.61253 11.1564 8.9846 11.3012 9.33144C11.446 9.67829 11.658 9.99306 11.925 10.2576C12.192 10.5222 12.5086 10.7314 12.8568 10.8731C13.2049 11.0148 13.5776 11.0863 13.9535 11.0833C14.3293 11.082 14.7012 11.0062 15.0476 10.8603C15.394 10.7144 15.7081 10.5014 15.9716 10.2334C16.2352 9.9655 16.4431 9.648 16.5833 9.29927C16.7235 8.95054 16.7933 8.57749 16.7885 8.20167V8.2005Z" fill="#94A8B4"/>
</svg>
