<svg width="24" height="22" viewBox="0 0 24 22" fill="none" xmlns="http://www.w3.org/2000/svg">
<path d="M21.375 3.875H16.7344C16.8563 3.68975 16.9731 3.52423 17.0799 3.38084C18.2136 1.85863 19.6051 0.875 20.625 0.875C20.7245 0.875 20.8198 0.835491 20.8902 0.765165C20.9605 0.694839 21 0.599456 21 0.5C21 0.400544 20.9605 0.305161 20.8902 0.234835C20.8198 0.164509 20.7245 0.125 20.625 0.125C18.1557 0.125 15.8117 1.1075 14.025 2.89152C13.7165 3.19971 13.429 3.52828 13.1645 3.875H9.75V2.75C9.74944 2.25289 9.55172 1.7763 9.20021 1.42479C8.8487 1.07328 8.37211 0.875558 7.875 0.875H2.625C2.12789 0.875558 1.6513 1.07328 1.29979 1.42479C0.948282 1.7763 0.750558 2.25289 0.75 2.75V20C0.750558 20.4971 0.948282 20.9737 1.29979 21.3252C1.6513 21.6767 2.12789 21.8744 2.625 21.875H21.375C21.8721 21.8744 22.3487 21.6767 22.7002 21.3252C23.0517 20.9737 23.2494 20.4971 23.25 20V5.75C23.2494 5.25289 23.0517 4.7763 22.7002 4.42479C22.3487 4.07328 21.8721 3.87556 21.375 3.875ZM14.5547 3.42228C15.5246 2.44652 16.7119 1.71451 18.0193 1.28628C17.4424 1.77231 16.9252 2.32501 16.4784 2.93281C15.6462 4.05045 14.25 6.38966 14.25 9.5C14.25 9.59946 14.2895 9.69484 14.3598 9.76517C14.4302 9.83549 14.5255 9.875 14.625 9.875H16.28L13.1373 12.732L10.2803 9.875H11.625C11.7245 9.875 11.8198 9.83549 11.8902 9.76517C11.9605 9.69484 12 9.59946 12 9.5C12 7.22553 12.9073 5.06708 14.5547 3.42228ZM12.6469 4.625C12.2098 5.32639 11.8684 6.0831 11.632 6.875H9.75V4.625H12.6469ZM2.625 21.125C2.32673 21.1247 2.04078 21.006 1.82987 20.7951C1.61897 20.5842 1.50033 20.2983 1.5 20V2.75C1.50033 2.45173 1.61897 2.16578 1.82987 1.95487C2.04078 1.74397 2.32673 1.62533 2.625 1.625H7.875C8.17327 1.62533 8.45922 1.74397 8.67013 1.95487C8.88103 2.16578 8.99967 2.45173 9 2.75V7.25C9 7.34946 9.03951 7.44484 9.10983 7.51517C9.18016 7.58549 9.27554 7.625 9.375 7.625H11.4422C11.3396 8.11909 11.2778 8.62078 11.2575 9.125H9.375C9.30083 9.125 9.22832 9.14699 9.16665 9.18819C9.10498 9.2294 9.05692 9.28797 9.02853 9.35649C9.00015 9.42502 8.99272 9.50042 9.00719 9.57316C9.02166 9.64591 9.05738 9.71273 9.10983 9.76517L12.8598 13.5152C12.928 13.5833 13.0197 13.6226 13.1161 13.6249C13.2124 13.6272 13.3059 13.5923 13.3772 13.5275L17.5022 9.77745C17.5582 9.72654 17.5975 9.65987 17.6149 9.58622C17.6323 9.51257 17.627 9.43537 17.5997 9.36478C17.5724 9.29419 17.5244 9.23351 17.462 9.19071C17.3996 9.14792 17.3257 9.12501 17.25 9.125H15.0073C15.0272 8.62116 15.0864 8.11964 15.1843 7.625H18.375C18.6733 7.62534 18.9592 7.74397 19.1701 7.95487C19.381 8.16578 19.4997 8.45173 19.5 8.75V20C19.4995 20.4059 19.6315 20.8009 19.8759 21.125H2.625ZM22.5 20C22.5 20.2984 22.3815 20.5845 22.1705 20.7955C21.9595 21.0065 21.6734 21.125 21.375 21.125C21.0766 21.125 20.7905 21.0065 20.5795 20.7955C20.3685 20.5845 20.25 20.2984 20.25 20V8.75C20.2494 8.25289 20.0517 7.7763 19.7002 7.42479C19.3487 7.07328 18.8721 6.87556 18.375 6.875H15.3627C15.5825 6.09228 15.8913 5.33735 16.2831 4.625H21.375C21.6733 4.62534 21.9592 4.74397 22.1701 4.95487C22.381 5.16578 22.4997 5.45173 22.5 5.75V20Z" fill="#94A8B4"/>
</svg>
