<svg width="19" height="19" viewBox="0 0 19 19" fill="none" xmlns="http://www.w3.org/2000/svg">
<path d="M3.65656 7.86869C5.11111 10.7273 7.45454 13.0707 10.3131 14.5253L12.5354 12.303C12.8182 12.0202 13.2121 11.9394 13.5657 12.0505C14.697 12.4242 15.9091 12.6263 17.1717 12.6263C17.4396 12.6263 17.6965 12.7327 17.886 12.9221C18.0754 13.1115 18.1818 13.3685 18.1818 13.6364V17.1717C18.1818 17.4396 18.0754 17.6965 17.886 17.886C17.6965 18.0754 17.4396 18.1818 17.1717 18.1818C12.6175 18.1818 8.2498 16.3727 5.02948 13.1523C1.80916 9.93202 0 5.56432 0 1.0101C0 0.742206 0.106421 0.485282 0.295852 0.295852C0.485282 0.106421 0.742205 0 1.0101 0H4.54545C4.81335 0 5.07027 0.106421 5.2597 0.295852C5.44913 0.485282 5.55555 0.742206 5.55555 1.0101C5.55555 2.27273 5.75757 3.48485 6.13131 4.61616C6.24242 4.9697 6.16161 5.36364 5.87879 5.64646L3.65656 7.86869Z" fill="#0083CD"/>
</svg>
