<svg width="37" height="54" viewBox="0 0 37 54" fill="none" xmlns="http://www.w3.org/2000/svg">
<path d="M32.5405 53.4864H3.78378C2.78063 53.4852 1.81891 53.0862 1.10957 52.3768C0.400235 51.6675 0.00120162 50.7058 0 49.7026V4.29721C0.00120162 3.29406 0.400235 2.33234 1.10957 1.623C1.81891 0.913663 2.78063 0.514629 3.78378 0.513428H32.5405C33.5437 0.514629 34.5054 0.913663 35.2148 1.623C35.9241 2.33234 36.3231 3.29406 36.3243 4.29721V49.7026C36.3231 50.7058 35.9241 51.6675 35.2148 52.3768C34.5054 53.0862 33.5437 53.4852 32.5405 53.4864ZM3.78378 2.02694C3.18167 2.02694 2.60422 2.26613 2.17846 2.69189C1.7527 3.11765 1.51351 3.6951 1.51351 4.29721V49.7026C1.51351 50.3047 1.7527 50.8822 2.17846 51.3079C2.60422 51.7337 3.18167 51.9729 3.78378 51.9729H32.5405C33.1427 51.9729 33.7201 51.7337 34.1459 51.3079C34.5716 50.8822 34.8108 50.3047 34.8108 49.7026V4.29721C34.8108 3.6951 34.5716 3.11765 34.1459 2.69189C33.7201 2.26613 33.1427 2.02694 32.5405 2.02694H3.78378Z" fill="#333333"/>
<path d="M0.756714 45.9187H35.5675V47.4322H0.756714V45.9187Z" fill="#333333"/>
<path d="M15.8919 48.9458H20.4324V50.4593H15.8919V48.9458Z" fill="#333333"/>
<path d="M0.756714 6.56763H35.5675V8.08114H0.756714V6.56763Z" fill="#333333"/>
<path d="M14.3784 3.54028H21.9459V5.0538H14.3784V3.54028Z" fill="#333333"/>
<path d="M18.1621 39.1081C15.7674 39.1081 13.4264 38.3979 11.4352 37.0675C9.44406 35.737 7.89213 33.846 6.9757 31.6335C6.05926 29.4211 5.81948 26.9865 6.28668 24.6378C6.75387 22.289 7.90705 20.1316 9.6004 18.4382C11.2938 16.7449 13.4512 15.5917 15.8 15.1245C18.1487 14.6573 20.5832 14.8971 22.7957 15.8135C25.0082 16.73 26.8992 18.2819 28.2297 20.2731C29.5601 22.2642 30.2702 24.6052 30.2702 27C30.2666 30.2101 28.9898 33.2878 26.7199 35.5577C24.4499 37.8276 21.3723 39.1045 18.1621 39.1081ZM18.1621 16.4054C16.0667 16.4054 14.0184 17.0267 12.2761 18.1909C10.5338 19.355 9.17588 21.0097 8.374 22.9456C7.57212 24.8815 7.36231 27.0117 7.77111 29.0669C8.1799 31.122 9.18894 33.0098 10.6706 34.4915C12.1523 35.9732 14.0401 36.9822 16.0952 37.391C18.1504 37.7998 20.2806 37.59 22.2165 36.7881C24.1524 35.9862 25.8071 34.6283 26.9712 32.886C28.1354 31.1437 28.7567 29.0954 28.7567 27C28.7535 24.1911 27.6363 21.4982 25.6501 19.512C23.6639 17.5258 20.971 16.4086 18.1621 16.4054Z" fill="#333333"/>
<path d="M15.8919 33.054C15.6912 33.054 15.4988 32.9742 15.3569 32.8323L10.8163 28.2917L11.8864 27.2217L15.8919 31.2272L24.438 22.6812L25.508 23.7512L16.4269 32.8323C16.285 32.9742 16.0926 33.054 15.8919 33.054Z" fill="#333333"/>
</svg>
