<svg width="37" height="54" viewBox="0 0 37 54" fill="none" xmlns="http://www.w3.org/2000/svg">
<path d="M32.5405 53.4864H3.78378C2.78063 53.4852 1.81891 53.0862 1.10957 52.3768C0.400235 51.6675 0.00120162 50.7058 0 49.7026V4.29721C0.00120162 3.29406 0.400235 2.33234 1.10957 1.623C1.81891 0.913663 2.78063 0.514629 3.78378 0.513428H32.5405C33.5437 0.514629 34.5054 0.913663 35.2148 1.623C35.9241 2.33234 36.3231 3.29406 36.3243 4.29721V49.7026C36.3231 50.7058 35.9241 51.6675 35.2148 52.3768C34.5054 53.0862 33.5437 53.4852 32.5405 53.4864ZM3.78378 2.02694C3.18167 2.02694 2.60422 2.26613 2.17846 2.69189C1.7527 3.11765 1.51351 3.6951 1.51351 4.29721V49.7026C1.51351 50.3047 1.7527 50.8822 2.17846 51.3079C2.60422 51.7337 3.18167 51.9729 3.78378 51.9729H32.5405C33.1427 51.9729 33.7201 51.7337 34.1459 51.3079C34.5716 50.8822 34.8108 50.3047 34.8108 49.7026V4.29721C34.8108 3.6951 34.5716 3.11765 34.1459 2.69189C33.7201 2.26613 33.1427 2.02694 32.5405 2.02694H3.78378Z" fill="#333333"/>
<path d="M22.7027 50.4592H13.6216C13.0195 50.4592 12.442 50.2201 12.0163 49.7943C11.5905 49.3685 11.3513 48.7911 11.3513 48.189C11.3513 47.5869 11.5905 47.0094 12.0163 46.5836C12.442 46.1579 13.0195 45.9187 13.6216 45.9187H22.7027C23.3048 45.9187 23.8822 46.1579 24.308 46.5836C24.7338 47.0094 24.973 47.5869 24.973 48.189C24.973 48.7911 24.7338 49.3685 24.308 49.7943C23.8822 50.2201 23.3048 50.4592 22.7027 50.4592ZM13.6216 47.4322C13.4209 47.4322 13.2284 47.5119 13.0865 47.6539C12.9446 47.7958 12.8648 47.9883 12.8648 48.189C12.8648 48.3897 12.9446 48.5822 13.0865 48.7241C13.2284 48.866 13.4209 48.9457 13.6216 48.9457H22.7027C22.9034 48.9457 23.0959 48.866 23.2378 48.7241C23.3797 48.5822 23.4594 48.3897 23.4594 48.189C23.4594 47.9883 23.3797 47.7958 23.2378 47.6539C23.0959 47.5119 22.9034 47.4322 22.7027 47.4322H13.6216Z" fill="#333333"/>
<path d="M0.756744 6.56763H35.5676V8.08114H0.756744V6.56763Z" fill="#333333"/>
<path d="M13.6216 3.54028H22.7027V5.0538H13.6216V3.54028Z" fill="#333333"/>
<path d="M0.756744 42.8918H35.5676V44.4054H0.756744V42.8918Z" fill="#333333"/>
<path d="M7.56755 33.8108H28.7567V35.3243H7.56755V33.8108Z" fill="#333333"/>
<path d="M28 23.2159H8.32431C8.1236 23.2159 7.93112 23.1362 7.7892 22.9943C7.64728 22.8524 7.56755 22.6599 7.56755 22.4592V20.1889C7.56755 20.0443 7.60896 19.9028 7.68688 19.781C7.76479 19.6593 7.87596 19.5623 8.00723 19.5018L17.8451 14.9612C17.9445 14.9154 18.0527 14.8916 18.1621 14.8916C18.2716 14.8916 18.3798 14.9154 18.4792 14.9612L28.3171 19.5018C28.4483 19.5623 28.5595 19.6593 28.6374 19.781C28.7153 19.9028 28.7567 20.0443 28.7567 20.1889V22.4592C28.7567 22.6599 28.677 22.8524 28.5351 22.9943C28.3932 23.1362 28.2007 23.2159 28 23.2159ZM9.08106 21.7024H27.2432V20.6732L18.1621 16.4808L9.08106 20.6732V21.7024Z" fill="#333333"/>
<path d="M25.7297 22.4592H27.2433V34.5673H25.7297V22.4592Z" fill="#333333"/>
<path d="M17.4054 22.4592H18.9189V34.5673H17.4054V22.4592Z" fill="#333333"/>
<path d="M9.08109 22.4592H10.5946V34.5673H9.08109V22.4592Z" fill="#333333"/>
</svg>
