<svg width="37" height="54" viewBox="0 0 37 54" fill="none" xmlns="http://www.w3.org/2000/svg">
<path d="M31.027 53.4864H5.2973C3.89286 53.4848 2.5464 52.9262 1.55331 51.9331C0.560224 50.94 0.00160233 49.5935 0 48.1891V5.81073C0.00160233 4.40629 0.560224 3.05983 1.55331 2.06674C2.5464 1.07365 3.89286 0.51503 5.2973 0.513428H31.027C32.4315 0.51503 33.7779 1.07365 34.771 2.06674C35.7641 3.05983 36.3227 4.40629 36.3243 5.81073V48.1891C36.3227 49.5935 35.7641 50.94 34.771 51.9331C33.7779 52.9262 32.4315 53.4848 31.027 53.4864ZM5.2973 2.02694C4.29414 2.02814 3.33242 2.42718 2.62308 3.13651C1.91375 3.84585 1.51472 4.80757 1.51351 5.81073V48.1891C1.51472 49.1923 1.91375 50.154 2.62308 50.8633C3.33242 51.5727 4.29414 51.9717 5.2973 51.9729H31.027C32.0302 51.9717 32.9919 51.5727 33.7012 50.8633C34.4106 50.154 34.8096 49.1923 34.8108 48.1891V5.81073C34.8096 4.80757 34.4106 3.84585 33.7012 3.13651C32.9919 2.42718 32.0302 2.02814 31.027 2.02694H5.2973Z" fill="#333333"/>
<path d="M0.756714 45.9187H35.5675V47.4322H0.756714V45.9187Z" fill="#333333"/>
<path d="M15.1351 48.9458H21.1892V50.4593H15.1351V48.9458Z" fill="#333333"/>
<path d="M0.756714 6.56763H35.5675V8.08114H0.756714V6.56763Z" fill="#333333"/>
<path d="M14.3784 3.54028H21.9459V5.0538H14.3784V3.54028Z" fill="#333333"/>
<path d="M18.1621 38.3511C15.9171 38.3511 13.7224 37.6854 11.8557 36.4381C9.98895 35.1908 8.53402 33.4179 7.67487 31.3438C6.81571 29.2696 6.59091 26.9872 7.02891 24.7853C7.4669 22.5833 8.54801 20.5607 10.1355 18.9732C11.723 17.3857 13.7457 16.3045 15.9476 15.8666C18.1495 15.4286 20.4319 15.6534 22.5061 16.5125C24.5803 17.3717 26.3531 18.8266 27.6004 20.6933C28.8477 22.56 29.5135 24.7547 29.5135 26.9998C29.5101 30.0093 28.313 32.8946 26.185 35.0226C24.0569 37.1507 21.1717 38.3477 18.1621 38.3511ZM18.1621 17.162C16.2164 17.162 14.3144 17.7389 12.6965 18.8199C11.0787 19.9009 9.81777 21.4374 9.07317 23.235C8.32857 25.0326 8.13375 27.0107 8.51334 28.9191C8.89294 30.8274 9.8299 32.5803 11.2057 33.9562C12.5816 35.332 14.3345 36.269 16.2429 36.6486C18.1512 37.0282 20.1293 36.8334 21.9269 36.0888C23.7245 35.3442 25.261 34.0832 26.342 32.4654C27.423 30.8476 28 28.9455 28 26.9998C27.997 24.3916 26.9595 21.891 25.1152 20.0467C23.2709 18.2024 20.7704 17.165 18.1621 17.162Z" fill="#333333"/>
<path d="M18.1622 28.5135C17.2642 28.5135 16.3863 28.2472 15.6396 27.7482C14.8929 27.2493 14.3109 26.5402 13.9673 25.7105C13.6236 24.8808 13.5337 23.9679 13.7089 23.0871C13.8841 22.2063 14.3165 21.3973 14.9515 20.7623C15.5865 20.1273 16.3956 19.6948 17.2764 19.5196C18.1572 19.3444 19.0701 19.4343 19.8998 19.778C20.7295 20.1217 21.4386 20.7036 21.9375 21.4503C22.4364 22.197 22.7027 23.0749 22.7027 23.9729C22.7013 25.1767 22.2225 26.3308 21.3713 27.182C20.5201 28.0332 19.366 28.5121 18.1622 28.5135ZM18.1622 20.9459C17.5635 20.9459 16.9783 21.1234 16.4805 21.456C15.9827 21.7887 15.5947 22.2614 15.3656 22.8145C15.1365 23.3676 15.0765 23.9763 15.1933 24.5635C15.3101 25.1506 15.5984 25.69 16.0218 26.1134C16.4451 26.5367 16.9845 26.825 17.5716 26.9418C18.1588 27.0586 18.7675 26.9986 19.3206 26.7695C19.8737 26.5404 20.3465 26.1524 20.6791 25.6546C21.0117 25.1569 21.1892 24.5716 21.1892 23.9729C21.1892 23.1701 20.8703 22.4002 20.3026 21.8325C19.7349 21.2648 18.965 20.9459 18.1622 20.9459Z" fill="#333333"/>
<path d="M24.9283 34.5485C24.738 32.8873 23.9432 31.3541 22.6954 30.2411C21.4475 29.1281 19.8339 28.513 18.1618 28.513C16.4897 28.513 14.876 29.1281 13.6282 30.2411C12.3804 31.3541 11.5856 32.8873 11.3952 34.5485L9.89081 34.3782C10.1219 32.3465 11.0928 30.471 12.6182 29.1092C14.1437 27.7475 16.117 26.9949 18.1618 26.9949C20.2066 26.9949 22.1799 27.7475 23.7053 29.1092C25.2308 30.471 26.2016 32.3465 26.4328 34.3782L24.9283 34.5485Z" fill="#333333"/>
</svg>
