<svg width="24" height="25" viewBox="0 0 24 25" fill="none" xmlns="http://www.w3.org/2000/svg">
<path d="M15.6835 0H8.31649C1.5937 0 0 1.65981 0 8.66149V16.3341C0 23.3358 1.5937 24.9956 8.31649 24.9956H15.6835C22.4063 24.9956 24 23.3358 24 16.3341V8.66149C24 1.65981 22.3905 0 15.6835 0ZM19.3749 17.8307H17.6327C16.9727 17.8307 16.7695 17.2855 15.5823 16.0326C14.551 14.9914 14.0943 14.8532 13.8401 14.8532C13.4808 14.8532 13.3788 14.9586 13.3788 15.4718V17.1113C13.3788 17.5511 13.2461 17.8151 12.1286 17.8151C10.2807 17.8151 8.23024 16.6512 6.79254 14.4829C4.62436 11.3055 4.03112 8.9255 4.03112 8.43341C4.03112 8.16862 4.13237 7.92102 4.62061 7.92102H6.36655C6.80829 7.92102 6.97628 8.13269 7.14803 8.62478C8.01125 11.2203 9.44896 13.4941 10.0422 13.4941C10.2612 13.4941 10.3624 13.3886 10.3624 12.8067V10.126C10.2957 8.88957 9.67095 8.78334 9.67095 8.34437C9.67095 8.13269 9.83894 7.92102 10.1082 7.92102H12.8538C13.2251 7.92102 13.3616 8.13269 13.3616 8.58807V12.2045C13.3616 12.595 13.5296 12.7333 13.6308 12.7333C13.8498 12.7333 14.0373 12.595 14.443 12.1717C15.697 10.7072 16.5955 8.44903 16.5955 8.44903C16.7125 8.18424 16.9157 7.93664 17.3575 7.93664H19.1034C19.6269 7.93664 19.7439 8.21705 19.6269 8.60759C19.4079 9.66519 17.2712 12.8059 17.2712 12.8059C17.0875 13.1231 17.017 13.2613 17.2712 13.6151C17.4587 13.8799 18.0684 14.429 18.4742 14.9211C19.2204 15.8038 19.7941 16.5442 19.9471 17.0566C20.1189 17.5651 19.8654 17.8299 19.3726 17.8299L19.3749 17.8307Z" fill="#94A8B4"/>
</svg>
