<svg width="28" height="28" viewBox="0 0 28 28" fill="none" xmlns="http://www.w3.org/2000/svg">
<path fill-rule="evenodd" clip-rule="evenodd" d="M14.056 20.104H15.176C15.176 20.104 15.512 20.048 15.68 19.88C15.848 19.712 15.848 19.376 15.848 19.376C15.848 19.376 15.848 17.92 16.52 17.696C17.192 17.472 18.088 19.152 18.984 19.768C19.656 20.272 20.16 20.16 20.16 20.16L22.624 20.104C22.624 20.104 23.912 20.048 23.296 18.984C23.24 18.928 22.96 18.256 21.448 16.856C19.88 15.4 20.104 15.68 21.952 13.16C23.072 11.648 23.52 10.752 23.408 10.304C23.296 9.91199 22.456 10.024 22.456 10.024H19.656C19.656 10.024 19.432 9.96799 19.32 10.08C19.152 10.192 19.096 10.36 19.096 10.36C19.096 10.36 18.648 11.536 18.088 12.544C16.856 14.616 16.352 14.728 16.184 14.616C15.736 14.336 15.848 13.384 15.848 12.768C15.848 10.752 16.184 9.91199 15.232 9.68799C14.952 9.63199 14.728 9.57599 13.944 9.57599C12.936 9.57599 12.096 9.57599 11.648 9.79999C11.312 9.96799 11.088 10.304 11.256 10.304C11.424 10.304 11.872 10.416 12.096 10.696C12.32 11.2 12.32 12.04 12.32 12.04C12.32 12.04 12.488 14.448 11.928 14.728C11.536 14.952 11.032 14.504 9.91201 12.6C9.35201 11.648 8.90401 10.528 8.90401 10.528C8.90401 10.528 8.84801 10.304 8.68001 10.192C8.51201 10.08 8.23201 10.024 8.23201 10.024H5.60001C5.60001 10.024 5.20801 10.024 5.04001 10.192C4.92801 10.36 5.04001 10.64 5.04001 10.64C5.04001 10.64 7.11201 15.456 9.46401 17.92C11.648 20.272 14.056 20.104 14.056 20.104Z" fill="#94A8B4"/>
</svg>
